<ttFont>
          <CharString index="0">
            323 540 rmoveto
            -133 -144 -96 -179 -171 132 -102 143 -100 callsubr
            -169 -277 rmoveto
            118 97 56 78 52 46 -21 -45 23 vhcurveto
            -295 -127 rlineto
            -1 6 0 6 7 vvcurveto
            return
          </CharString>
          <CharString index="1">
            hstem
            46 108 vstem
            -107 callsubr
            return
          </CharString>
          <CharString index="2">
            -77 callgsubr
            hlineto
            203 -112 105 -182 -183 -113 -105 -209 vhcurveto
            118 5 rmoveto
            -89 callgsubr
            return
          </CharString>
          <CharString index="3">
            -92 vlineto
            66 -45 -62 34 -69 hhcurveto
            -101 callgsubr
            return
          </CharString>
          <CharString index="4">
            -103 callgsubr
            endchar
          </CharString>
          <CharString index="5">
            -12 callgsubr
            -35 28 -27 33 -97 callsubr
            -33 -28 -27 -34 vhcurveto
            return
          </CharString>
          <CharString index="6">
            -107 callgsubr
            endchar
          </CharString>
          <CharString index="7">
            75 80 27 71 69 hvcurveto
            -66 73 rlineto
            -46 -38 -57 -24 -55 hhcurveto
            -54 -52 23 41 -33 hvcurveto
            388 163 -1 2 rlineto
            130 -1 -109 88 -144 hhcurveto
            return
          </CharString>
          <CharString index="8">
            -21 235 107 250 107 -104 callgsubr
            return
          </CharString>
          <CharString index="9">
            -35 callsubr
            hintmask 11101000
            -58 callsubr
            hintmask 11110000
            -97 callgsubr
            hintmask 11101000
            -72 callsubr
            endchar
          </CharString>
          <CharString index="10">
            34 28 28 34 34 -27 27 -35 return
          </CharString>
          <CharString index="11">
            rmoveto
            -95 callsubr
            return
          </CharString>
          <CharString index="12">
            122 96 -118 49 -106 -145 rlineto
            return
          </CharString>
          <CharString index="13">
            -83 callsubr
            hintmask 01011110
            -87 -74 callsubr
            hintmask 10101110
            -104 callsubr
            return
          </CharString>
          <CharString index="14">
            2 callsubr
            134 10 callgsubr
            -77 -56 -77 56 10 callgsubr
            122 -1 callgsubr
            endchar
          </CharString>
          <CharString index="15">
            rmoveto
            -74 callgsubr
            -326 vlineto
            -144 86 -70 115 73 68 39 66 36 vhcurveto
            return
          </CharString>
          <CharString index="16">
            -115 111 168 111 424 -20 21 -20 hstemhm
            75 118 323 118 hintmask 11011100
            66 60 rmoveto
            -116 45 104 -59 123 hhcurveto
            165 131 105 209 hvcurveto
            501 -118 -274 vlineto
            -93 -13 -61 -58 -91 hhcurveto
            -109 -49 69 129 hvcurveto
            hintmask 11101100
            226 -118 -231 vlineto
            -209 111 -95 165 60 58 27 40 47 vhcurveto
            -27 vlineto
            -39 callsubr
            -80 -58 42 73 -26 vhcurveto
            return
          </CharString>
          <CharString index="17">
            -99 callgsubr
            endchar
          </CharString>
          <CharString index="18">
            -23 callgsubr
            205 -20 -106 callsubr
            return
          </CharString>
          <CharString index="19">
            -96 callsubr
            endchar
          </CharString>
          <CharString index="20">
            rmoveto
            -106 145 -118 -49 122 -96 rlineto
            return
          </CharString>
          <CharString index="21">
            106 74 45 70 77 45 -45 -102 vhcurveto
            -292 112 326 vlineto
            144 -86 70 -115 -73 return
          </CharString>
          <CharString index="22">
            -65 callsubr
            -152 118 -122 162 return
          </CharString>
          <CharString index="23">
            -46 callsubr
            -96 callgsubr
            return
          </CharString>
          <CharString index="24">
            -75 callsubr
            31 64 45 vhcurveto
            return
          </CharString>
          <CharString index="25">
            51 -69 callsubr
            457 -112 -240 vlineto
            -93 -8 -37 -50 -91 hhcurveto
            -99 -31 48 122 hvcurveto
            return
          </CharString>
          <CharString index="26">
            rmoveto
            87 -63 72 -87 -88 -64 -73 -87 -87 63 -72 87 88 64 73 87 vhcurveto
            return
          </CharString>
          <CharString index="27">
            453 244 -92 callsubr
            return
          </CharString>
          <CharString index="28">
            -80 callgsubr
            endchar
          </CharString>
          <CharString index="29">
            -40 -24 -31 -33 -31 -27 31 40 40 24 31 33 31 27 -31 -40 vhcurveto
            return
          </CharString>
          <CharString index="30">
            -19 callsubr
            -102 callgsubr
            return
          </CharString>
          <CharString index="31">
            212 -112 -262 vlineto
            -182 100 -45 107 73 57 27 42 41 vhcurveto
            -33 vlineto
            -120 -46 -68 -102 -74 -50 35 68 -26 vhcurveto
            return
          </CharString>
          <CharString index="32">
            rmoveto
            -169 123 -105 128 64 72 return
          </CharString>
          <CharString index="33">
            -55 callgsubr
            9 callgsubr
            return
          </CharString>
          <CharString index="34">
            hstem
            44 452 vstem
            74 243 rmoveto
            90 hlineto
            -120 -1 callgsubr
            -109 452 97 -315 vlineto
            131 146 rlineto
            130 50 -85 hlineto
            123 136 rlineto
            101 -416 -96 271 vlineto
            -126 -141 rlineto
            -135 hlineto
            return
          </CharString>
          <CharString index="35">
            -138 -29 50 51 -55 callsubr
            hvcurveto
            return
          </CharString>
          <CharString index="36">
            -64 callgsubr
            -8 -20 return
          </CharString>
          <CharString index="37">
            -207 -161 -155 -206 return
          </CharString>
          <CharString index="38">
            -50 rmoveto
            -106 41 94 -56 116 hhcurveto
            147 113 95 192 hvcurveto
            return
          </CharString>
          <CharString index="39">
            rmoveto
            -96 -111 rlineto
            -53 vlineto
            5 16 15 1 14 hhcurveto
            64 34 -29 -38 -48 -39 -20 -44 -35 -40 14 22 -31 hvcurveto
            -30 -56 rlineto
            -29 43 49 -15 44 hhcurveto
            81 68 48 88 59 -40 56 -80 2 hvcurveto
            return
          </CharString>
          <CharString index="40">
            -60 callgsubr
            hintmask 01011100
            -26 -57 rlineto
            hintmask 10101110
            -66 callgsubr
            return
          </CharString>
          <CharString index="41">
            168 -7 108 507 108 return
          </CharString>
          <CharString index="42">
            -162 -118 -122 -152 return
          </CharString>
          <CharString index="43">
            416 107 rmoveto
            -129 -112 108 137 152 112 96 138 79 53 -22 -64 67 hvcurveto
            75 82 rlineto
            64 -58 -87 56 -134 -18 callgsubr
            return
          </CharString>
          <CharString index="44">
            140 107 114 140 return
          </CharString>
          <CharString index="45">
            90 rmoveto
            -66 72 rlineto
            -39 -38 -46 -29 -59 hhcurveto
            -97 -77 78 95 105 84 64 88 61 42 -28 -32 37 hvcurveto
            66 81 rlineto
            57 -57 -80 26 -72 hhcurveto
            -146 -135 -106 -169 return
          </CharString>
          <CharString index="46">
            rmoveto
            -108 hlineto
            -119 -176 119 -176 rlineto
            108 hlineto
            -115 176 rlineto
            return
          </CharString>
          <CharString index="47">
            rmoveto
            -115 -176 rlineto
            108 hlineto
            119 176 -119 176 rlineto
            -108 hlineto
            return
          </CharString>
          <CharString index="48">
            -17 callgsubr
            -57 51 -47 57 57 52 47 57 vhcurveto
            -54 hmoveto
            -53 callsubr
          </CharString>
          <CharString index="49">
            -152 -93 -77 -106 -53 18 -60 63 -44 hvcurveto
            return
          </CharString>
          <CharString index="50">
            95 -49 callgsubr
            111 return
          </CharString>
          <CharString index="51">
            162 118 122 152 return
          </CharString>
          <CharString index="52">
            64 66 14 65 56 53 -15 -17 39 return
          </CharString>
          <CharString index="53">
            -46 callgsubr
            hstemhm
            88 -34 callsubr
            hintmask 10111000
            return
          </CharString>
          <CharString index="54">
            -32 -22 -23 -33 -32 -23 23 32 33 23 23 32 33 22 -23 -33 vhcurveto
            endchar
          </CharString>
          <CharString index="55">
            600 -87 callsubr
            return
          </CharString>
          <CharString index="56">
            351 321 rmoveto
            202 211 rlineto
            -144 hlineto
            -216 -226 rlineto
            return
          </CharString>
          <CharString index="57">
            128 123 108 166 hvcurveto
            -277 -174 rmoveto
            -84 -73 70 101 106 73 73 84 91 74 -75 -102 -106 -80 -67 -85 hvcurveto
            endchar
          </CharString>
          <CharString index="58">
            rmoveto
            -532 -55 callgsubr
            vlineto
            return
          </CharString>
          <CharString index="59">
            334 rmoveto
            471 -217 rlineto
            114 vlineto
            -352 163 rlineto
            11 vlineto
            352 159 rlineto
            114 vlineto
            -471 -218 rlineto
            return
          </CharString>
          <CharString index="60">
            96 500 -42 callsubr
            return
          </CharString>
          <CharString index="61">
            hstem
            52 121 494 121 vstem
            return
          </CharString>
          <CharString index="62">
            -21 532 -20 return
          </CharString>
          <CharString index="63">
            rlineto
            4 10 9 1 8 hhcurveto
            28 15 -21 -20 return
          </CharString>
          <CharString index="64">
            -93 callgsubr
            endchar
          </CharString>
          <CharString index="65">
            rmoveto
            -93 callgsubr
            return
          </CharString>
          <CharString index="66">
            2 callgsubr
            336 112 return
          </CharString>
          <CharString index="67">
            -26 -8 101 -72 -45 callsubr
            return
          </CharString>
          <CharString index="68">
            -129 -69 -79 -109 return
          </CharString>
          <CharString index="69">
            -87 callsubr
            endchar
          </CharString>
          <CharString index="70">
            hstem
            81 -21 callsubr
            return
          </CharString>
          <CharString index="71">
            -373 -765 rlineto
            72 hlineto
            373 765 rlineto
            return
          </CharString>
          <CharString index="72">
            rmoveto
            21 -44 -80 15 -60 hhcurveto
            return
          </CharString>
          <CharString index="73">
            118 -9 callsubr
            return
          </CharString>
          <CharString index="74">
            -8 -20 callsubr
            return
          </CharString>
          <CharString index="75">
            -699 118 return
          </CharString>
          <CharString index="76">
            -26 callsubr
            491 return
          </CharString>
          <CharString index="77">
            -212 102 152 107 382 -20 21 -20 return
          </CharString>
          <CharString index="78">
            -84 rlineto
            -36 40 47 -17 45 hhcurveto
            return
          </CharString>
          <CharString index="79">
            -21 699 -20 return
          </CharString>
          <CharString index="80">
            rmoveto
            -61 83 -289 65 350 vlineto
            endchar
          </CharString>
          <CharString index="81">
            rmoveto
            -78 callsubr
            return
          </CharString>
          <CharString index="82">
            -36 callgsubr
            -37 callsubr
            return
          </CharString>
          <CharString index="83">
            -11 -16 -7 -16 -20 vvcurveto
            -40 30 -23 33 return
          </CharString>
          <CharString index="84">
            -118 -32 callsubr
            return
          </CharString>
          <CharString index="85">
            21 -28 callsubr
            hstem
            return
          </CharString>
          <CharString index="86">
            112 vstem
            return
          </CharString>
          <CharString index="87">
            -20 -16 callgsubr
            return
          </CharString>
          <CharString index="88">
            hstem
            88 118 353 -6 callsubr
            return
          </CharString>
          <CharString index="89">
            -20 -39 callgsubr
            return
          </CharString>
          <CharString index="90">
            -532 112 return
          </CharString>
          <CharString index="91">
            97 118 return
          </CharString>
          <CharString index="92">
            rmoveto
            -71 -2 -66 -48 -35 -65 rrcurveto
            return
          </CharString>
          <CharString index="93">
            hstem
            180 -19 callgsubr
            return
          </CharString>
          <CharString index="94">
            -41 callgsubr
            -14 callsubr
            return
          </CharString>
          <CharString index="95">
            -439 112 439 106 93 -106 51 vlineto
            71 return
          </CharString>
          <CharString index="96">
            -132 -402 -132 402 -3 callsubr
            return
          </CharString>
          <CharString index="97">
            118 hlineto
            192 83 -91 -149 hvcurveto
            endchar
          </CharString>
          <CharString index="98">
            356 118 return
          </CharString>
          <CharString index="99">
            3 0 109 200 70 212 108 return
          </CharString>
          <CharString index="100">
            100 112 rlineto
            54 -242 -62 vlineto
            endchar
          </CharString>
          <CharString index="101">
            119 vstem
            return
          </CharString>
          <CharString index="102">
            rmoveto
            96 hlineto
            80 195 rlineto
            -111 hlineto
            return
          </CharString>
          <CharString index="103">
            -125 rlineto
            -58 279 66 -185 vlineto
            return
          </CharString>
          <CharString index="104">
            rlineto
            -116 hlineto
            return
          </CharString>
          <CharString index="105">
            123 hstemhm
            return
          </CharString>
          <CharString index="106">
            -149 -245 rlineto
            -61 175 vlineto
            return
          </CharString>
          <CharString index="107">
            -317 -140 84 729 84 hstem
            return
          </CharString>
          <CharString index="108">
            93 115 94 95 95 115 92 return
          </CharString>
          <CharString index="109">
            rmoveto
            122 return
          </CharString>
          <CharString index="110">
            219 -137 130 -253 return
          </CharString>
          <CharString index="111">
            0 97 146 50 141 96 return
          </CharString>
          <CharString index="112">
            61 117 -20 hstemhm
            118 65 return
          </CharString>
          <CharString index="113">
            -56 -60 -51 -30 -86 hhcurveto
            endchar
          </CharString>
          <CharString index="114">
            64 352 hstem
            return
          </CharString>
          <CharString index="115">
            149 hstem
            return
          </CharString>
          <CharString index="116">
            149 vstem
            return
          </CharString>
        <CharString name=".notdef">
          endchar
        </CharString>
        <CharString name="A">
          95 23 -21 157 109 432 -20 hstem
          -102 callgsubr
          endchar
        </CharString>
        <CharString name="AE">
          368 0 110 49 113 22 103 192 110 hstemhm
          472 129 hintmask 10111000
          974 699 rmoveto
          -619 hlineto
          -366 -699 rlineto
          145 hlineto
          hintmask 11111000
          85 159 rlineto
          253 -159 514 110 -385 hlineto
          hintmask 10111000
          184 335 103 -335 192 373 vlineto
          hintmask 11111000
          -502 -317 rmoveto
          -196 hlineto
          167 317 rlineto
          29 hlineto
          endchar
        </CharString>
        <CharString name="Aacute">
          -57 callsubr
          -19 callsubr
          428 -51 callgsubr
          -238 -758 rmoveto
          -105 callsubr
          endchar
        </CharString>
        <CharString name="Acircumflex">
          -57 callsubr
          41 134 -77 callsubr
          124 608 -103 callsubr
        </CharString>
        <CharString name="Adieresis">
          -57 callsubr
          37 -2 callsubr
          88 118 28 -43 callgsubr
          17 119 hintmask 11111001
          -102 callgsubr
          hintmask 11111111
          28 532 -101 callsubr
        </CharString>
        <CharString name="Agrave">
          -57 callsubr
          -77 callsubr
          257 474 -38 callsubr
        </CharString>
        <CharString name="Aring">
          98 -49 callgsubr
          121 -17 -20 148 49 hstemhm
          90 118 69 53 110 54 67 119 hintmask 1101111110000000
          494 781 -17 callgsubr
          -28 12 -26 19 -18 vhcurveto
          -137 -27 -81 -103 -177 vvcurveto
          -402 -77 callgsubr
          vlineto
          173 -81 101 -137 27 vhcurveto
          20 18 12 26 28 vvcurveto
          -286 -374 rmoveto
          hintmask 1110111110000000
          -89 callgsubr
          232 498 rmoveto
          -53 callsubr
        </CharString>
        <CharString name="Atilde">
          -57 callsubr
          38 -62 callgsubr
          88 118 14 -13 callgsubr
          7 119 hintmask 1111010010000000
          -102 callgsubr
          hintmask 1111010100000000
          346 601 -70 callgsubr
          hintmask 1110111010000000
          -95 callgsubr
          hintmask 1111010100000000
          -79 callsubr
        </CharString>
        <CharString name="B">
          34 0 109 191 109 181 109 hstemhm
          -16 callsubr
          278 123 -82 121 hintmask 11110100
          403 hmoveto
          201 51 108 86 89 -56 62 -86 18 hvcurveto
          hintmask 11111000
          34 16 69 28 107 vvcurveto
          79 -46 106 -201 vhcurveto
          -272 -699 hlineto
          118 409 rmoveto
          181 151 vlineto
          84 43 -25 -69 -65 -54 -22 -74 hvcurveto
          -150 -300 rmoveto
          191 170 vlineto
          hintmask 11110100
          82 67 -24 -69 -81 -56 -17 -78 hvcurveto
          endchar
        </CharString>
        <CharString name="C">
          64 -8 115 493 116 hstem
          52 123 vstem
          -64 callsubr
          -212 159 -150 205 131 84 59 64 58 hvcurveto
          -76 78 rlineto
          6 callsubr
        </CharString>
        <CharString name="CR">
          endchar
        </CharString>
        <CharString name="Ccedilla">
          64 -20 callgsubr
          170 -91 -21 605 116 hstemhm
          52 123 227 87 hintmask 01011100
          hintmask 01101100
          -64 callsubr
          hvcurveto
          hintmask 01011100
          -195 133 -142 180 -22 vhcurveto
          hintmask 10101110
          -33 -63 -67 callsubr
          16 31 120 5 79 56 55 61 rlinecurve
          -76 78 rlineto
          hintmask 01101100
          6 callsubr
        </CharString>
        <CharString name="D">
          110 0 111 479 109 -21 callgsubr
          393 -6 callsubr
          727 350 rmoveto
          3 callsubr
          vhcurveto
          -240 -699 -7 callgsubr
          hvcurveto
          -119 hmoveto
          0 callgsubr
          479 -10 callsubr
        </CharString>
        <CharString name="Delta">
          118 0 110 589 -20 hstem
          30 730 vstem
          452 699 rmoveto
          -114 hlineto
          -308 -699 rlineto
          730 hlineto
          -554 111 rmoveto
          189 424 189 -426 rlineto
          endchar
        </CharString>
        <CharString name="E">
          -58 callgsubr
          513 680 -98 callsubr
        </CharString>
        <CharString name="Eacute">
          -58 callgsubr
          348 -51 callgsubr
          267 -78 -98 callsubr
        </CharString>
        <CharString name="Ecircumflex">
          -57 callgsubr
          41 134 -34 callgsubr
          hintmask 11111000
          513 680 -35 callsubr
          hintmask 11110100
          -58 callsubr
          hintmask 11111000
          -97 callgsubr
          hintmask 11110100
          -72 callsubr
          -231 323 -103 callsubr
        </CharString>
        <CharString name="Edieresis">
          -57 callgsubr
          37 123 -34 callgsubr
          -39 -43 callgsubr
          hintmask 11101001
          hintmask 11110011
          171 815 -107 callgsubr
          157 -135 -35 callsubr
          hintmask 11100101
          -58 callsubr
          hintmask 11101001
          -97 callgsubr
          hintmask 11100101
          -72 callsubr
          endchar
        </CharString>
        <CharString name="Egrave">
          -58 callgsubr
          413 -52 callgsubr
          202 -77 -98 callsubr
        </CharString>
        <CharString name="Eth">
          118 0 111 183 105 191 109 hstem
          105 118 393 -6 callsubr
          26 294 rmoveto
          79 -294 -7 callgsubr
          3 callsubr
          hvcurveto
          -240 -300 -79 hlineto
          590 -49 rmoveto
          0 callgsubr
          183 250 105 -250 191 -10 callsubr
        </CharString>
        <CharString name="Euro">
          89 4 116 104 86 83 86 117 120 hstem
          139 129 vstem
          52 393 rmoveto
          88 hlineto
          -1 -11 0 -11 -11 vvcurveto
          -17 1 -17 2 -16 vhcurveto
          -90 -86 109 hlineto
          -134 47 114 -86 139 hhcurveto
          116 78 52 63 51 hvcurveto
          -71 86 rlineto
          -55 -53 -45 -30 -76 hhcurveto
          -72 -58 40 64 -33 hvcurveto
          230 86 -257 hlineto
          -2 15 -1 16 17 vvcurveto
          12 0 11 1 12 vhcurveto
          259 86 -238 hlineto
          75 31 64 42 84 hhcurveto
          70 47 -22 -63 59 hvcurveto
          71 90 rlineto
          63 -51 -82 52 -119 hhcurveto
          -144 -120 -96 -141 -44 hvcurveto
          -104 hlineto
          endchar
        </CharString>
        <CharString name="F">
          -90 21 -21 257 110 233 116 hstem
          90 -19 callgsubr
          370 600 rmoveto
          56 73 -15 -17 39 hvcurveto
          24 112 rlineto
          21 -44 -100 15 -60 hhcurveto
          -152 -116 -88 -190 hvcurveto
          -438 118 257 247 110 -247 83 vlineto
          80 39 70 123 vhcurveto
          endchar
        </CharString>
        <CharString name="G">
          90 -7 113 494 116 hstem
          53 123 406 -19 callgsubr
          668 628 rmoveto
          50 -57 -79 38 -111 -18 callgsubr
          -212 139 -149 205 76 62 26 33 47 hvcurveto
          -59 118 188 vlineto
          1 vlineto
          148 -118 -139 vlineto
          -42 -34 -58 -43 -92 hhcurveto
          -132 -90 92 154 152 112 96 138 70 52 -13 -49 57 hvcurveto
          endchar
        </CharString>
        <CharString name="H">
          105 21 -21 286 110 303 -20 -21 callgsubr
          347 -19 callgsubr
          97 hmoveto
          118 286 347 -286 118 699 -118 -303 -347 303 -118 hlineto
          endchar
        </CharString>
        <CharString name="I">
          -13 callsubr
          -67 callgsubr
          endchar
        </CharString>
        <CharString name="Iacute">
          -13 callsubr
          287 -51 callgsubr
          247 -659 -88 callgsubr
          endchar
        </CharString>
        <CharString name="Icircumflex">
          -41 callgsubr
          58 134 -14 callsubr
          -67 callgsubr
          -245 898 -103 callsubr
        </CharString>
        <CharString name="Idieresis">
          -41 callgsubr
          54 -2 callsubr
          86 123 -29 118 -27 123 hintmask 11001000
          -67 callgsubr
          hintmask 11110100
          -346 822 -101 callsubr
        </CharString>
        <CharString name="Igrave">
          -13 callsubr
          324 -52 callgsubr
          210 -658 -88 callgsubr
          endchar
        </CharString>
        <CharString name="Itilde">
          -41 callgsubr
          55 -62 callgsubr
          75 74 31 118 34 75 hintmask 11101110
          -67 callgsubr
          -25 891 -70 callgsubr
          hintmask 11011110
          -95 callgsubr
          hintmask 11101110
          -79 callsubr
        </CharString>
        <CharString name="J">
          -103 -116 114 595 106 -69 callgsubr
          endchar
        </CharString>
        <CharString name="Jcircumflex">
          -121 -116 114 595 106 58 134 -69 callgsubr
          126 192 -103 callsubr
        </CharString>
        <CharString name="K">
          32 -22 callsubr
          97 -19 callgsubr
          97 699 rmoveto
          -32 callsubr
          196 vlineto
          102 110 232 -306 rlineto
          140 hlineto
          -285 393 281 306 rlineto
          -150 hlineto
          -320 -341 rlineto
          341 vlineto
          endchar
        </CharString>
        <CharString name="L">
          -106 0 112 587 -20 -21 callgsubr
          vstem
          97 hmoveto
          437 112 -319 587 -118 hlineto
          endchar
        </CharString>
        <CharString name="Lslash">
          -94 0 112 587 -20 hstem
          109 -19 callgsubr
          30 196 rmoveto
          79 24 rlineto
          -220 437 112 -319 145 vlineto
          219 68 rlineto
          105 vlineto
          -219 -68 rlineto
          337 -118 -374 vlineto
          -79 -24 rlineto
          endchar
        </CharString>
        <CharString name="M">
          405 21 -21 600 99 -99 116 hstemhm
          -16 callsubr
          267 120 267 118 cntrmask 00011100
          hintmask 10111100
          602 410 rmoveto
          109 46 81 85 87 49 -55 -122 vhcurveto
          -423 118 462 vlineto
          152 -83 102 -154 -83 -89 -41 -86 -36 vhcurveto
          82 -31 -70 45 -73 hhcurveto
          -53 -63 -23 -50 -37 hvcurveto
          hintmask 11011100
          56 -23 callsubr
          428 vlineto
          hintmask 10111100
          124 60 48 76 98 33 -81 -109 vhcurveto
          -410 120 vlineto
          endchar
        </CharString>
        <CharString name="N">
          106 -82 callgsubr
          endchar
        </CharString>
        <CharString name="NULL">
          -672 endchar
        </CharString>
        <CharString name="Nacute">
          164 -82 callgsubr
          68 182 -88 callsubr
        </CharString>
        <CharString name="Ntilde">
          106 -14 callgsubr
          75 -62 callgsubr
          -16 callsubr
          17 -13 callgsubr
          7 118 hintmask 1101010010000000
          hintmask 1101010100000000
          564 884 -70 callgsubr
          hintmask 1100111010000000
          -95 callgsubr
          hintmask 1101010100000000
          -80 callgsubr
          hintmask 1101010010000000
          -161 -279 -72 callgsubr
          hintmask 1011010010000000
          66 -23 callsubr
          397 vlineto
          hintmask 1101010010000000
          129 79 79 109 vhcurveto
          endchar
        </CharString>
        <CharString name="O">
          168 -7 108 507 108 -84 callsubr
          endchar
        </CharString>
        <CharString name="OE">
          394 -7 114 -107 103 212 106 175 103 -99 116 -17 -20 hstemhm
          53 128 281 122 -88 126 hintmask 0111001100000000
          hintmask 0110011100000000
          925 680 rmoveto
          hintmask 0110101100000000
          21 -44 -80 15 -60 hhcurveto
          -43 -38 -6 -11 -32 hvcurveto
          hintmask 0111001100000000
          -219 hlineto
          -201 -155 -149 -200 -200 155 -150 201 hvcurveto
          223 4 hlineto
          -7 32 35 -4 40 hhcurveto
          hintmask 1011001100000000
          107 76 29 21 39 hvcurveto
          -92 callgsubr
          -138 -29 50 51 hvcurveto
          hintmask 0110101010000000
          -55 callsubr
          vhcurveto
          -720 -218 rmoveto
          135 104 111 135 vhcurveto
          hintmask 0111001010000000
          88 hlineto
          -8 -20 -4 -21 -22 vvcurveto
          -53 18 -60 63 -44 vhcurveto
          -86 -41 -29 -68 -62 vvcurveto
          hintmask 0111001100000000
          -40 8 -33 16 -29 vhcurveto
          -66 hlineto
          -135 -104 112 135 hvcurveto
          endchar
        </CharString>
        <CharString name="Oacute">
          168 -7 108 507 108 -84 callsubr
          18 764 -88 callsubr
        </CharString>
        <CharString name="Ocircumflex">
          -66 callsubr
          41 134 -84 callsubr
          -54 898 -103 callsubr
        </CharString>
        <CharString name="Odieresis">
          -66 callsubr
          37 123 hstem
          52 121 88 -43 callgsubr
          98 121 vstem
          261 815 -107 callgsubr
          -26 -207 -106 callgsubr
          endchar
        </CharString>
        <CharString name="Ograve">
          -25 callgsubr
          496 -52 callgsubr
          26 -149 -106 callgsubr
          endchar
        </CharString>
        <CharString name="Omega">
          234 0 111 497 108 hstem
          85 121 494 121 vstem
          453 716 rmoveto
          -70 callsubr
          -85 34 -86 83 -73 hvcurveto
          -148 -111 334 110 hlineto
          -107 29 -75 98 117 vvcurveto
          -63 callsubr
          -54 callgsubr
          -117 -75 -98 -107 -29 vhcurveto
          -110 334 111 -148 vlineto
          83 73 34 86 85 vvcurveto
          -65 callgsubr
          vhcurveto
          endchar
        </CharString>
        <CharString name="Oslash">
          -25 callgsubr
          595 811 rmoveto
          -54 -114 rlineto
          12 -38 -41 7 -42 hhcurveto
          -70 callsubr
          -139 72 -116 111 -61 hvcurveto
          -73 -156 rlineto
          100 hlineto
          57 122 rlineto
          -8 32 34 -4 35 hhcurveto
          -56 callgsubr
          130 -65 110 -99 63 hvcurveto
          71 153 rlineto
          -275 -203 rmoveto
          26 25 -4 -8 24 hvcurveto
          -212 -454 rlineto
          -67 46 -43 78 88 vvcurveto
          -63 callsubr
          vhcurveto
          247 -254 rmoveto
          -139 -107 -114 -140 -19 -18 2 3 -17 vhcurveto
          209 447 rlineto
          56 -47 36 -72 -80 vvcurveto
          endchar
        </CharString>
        <CharString name="Otilde">
          -66 callsubr
          38 -62 callgsubr
          52 121 79 -13 callgsubr
          83 121 hintmask 11101011
          -96 callgsubr
          164 891 -70 callgsubr
          hintmask 11011111
          -95 callgsubr
          hintmask 11101011
          -79 callsubr
        </CharString>
        <CharString name="P">
          12 21 -21 205 107 280 107 -21 callgsubr
          306 121 vstem
          642 457 rmoveto
          156 -88 86 -217 vhcurveto
          -240 -32 callsubr
          205 124 hlineto
          200 103 4 callgsubr
          -28 -63 -141 vhcurveto
          -137 280 120 hlineto
          123 63 -31 -104 hvcurveto
          endchar
        </CharString>
        <CharString name="Q">
          168 19 -21 610 108 hstem
          52 121 188 118 188 121 cntrmask 00111000
          788 355 rmoveto
          -85 callgsubr
          -187 131 -144 178 -26 vhcurveto
          -120 118 120 vlineto
          177 26 132 144 187 vvcurveto
          -427 -135 rmoveto
          9 callgsubr
          -110 27 -78 100 119 vvcurveto
          -63 callsubr
          -54 callgsubr
          -119 -78 -100 -110 -27 vhcurveto
          112 vlineto
          endchar
        </CharString>
        <CharString name="R">
          56 21 -99 callsubr
          endchar
        </CharString>
        <CharString name="Racute">
          56 21 -99 callsubr
          -162 315 -88 callsubr
        </CharString>
        <CharString name="Rcaron">
          56 21 -21 235 107 250 107 61 134 -104 callgsubr
          -138 288 -93 callsubr
        </CharString>
        <CharString name="Rcommaaccent">
          56 -250 195 76 -99 callsubr
          -273 -722 -5 callsubr
          endchar
        </CharString>
        <CharString name="S">
          -42 -8 110 505 109 hstem
          68 123 267 123 vstem
          191 522 rmoveto
          61 54 24 64 67 79 -26 -38 42 vhcurveto
          63 89 rlineto
          55 -66 -94 29 -87 hhcurveto
          -129 -116 -64 -141 -130 84 -46 149 -35 hvcurveto
          129 -31 28 -26 -51 vvcurveto
          -54 -48 -36 -76 -86 -67 34 58 -67 vhcurveto
          -74 -89 rlineto
          -75 84 101 -38 106 hhcurveto
          147 103 79 133 117 -77 54 -148 36 hvcurveto
          -133 32 -32 24 55 vvcurveto
          endchar
        </CharString>
        <CharString name="Scaron">
          -38 -8 111 507 110 40 134 hstem
          68 124 269 123 vstem
          192 525 rmoveto
          61 54 24 65 67 80 -26 -38 42 vhcurveto
          63 90 rlineto
          55 -66 -95 29 -87 hhcurveto
          -130 -117 -64 -142 -131 85 -46 150 -35 hvcurveto
          129 -32 29 -26 -51 vvcurveto
          -54 -49 -36 -76 -87 -67 34 58 -67 vhcurveto
          -75 -89 rlineto
          -76 85 101 -38 107 hhcurveto
          148 103 79 134 118 -77 54 -149 36 hvcurveto
          -134 32 -32 25 55 vvcurveto
          176 235 -93 callsubr
        </CharString>
        <CharString name="T">
          4 21 -21 716 -20 hstem
          280 -19 callgsubr
          398 hmoveto
          597 vlineto
          110 -18 84 -60 0 vvcurveto
          66 94 rlineto
          58 -64 -132 45 -124 hhcurveto
          -124 -132 -45 -58 -64 hvcurveto
          66 -94 rlineto
          0 84 61 112 17 vhcurveto
          -597 vlineto
          endchar
        </CharString>
        <CharString name="Thorn">
          14 21 -21 117 107 280 107 -107 195 hstemhm
          -16 callsubr
          306 121 hintmask 11011100
          642 369 rmoveto
          hintmask 11101100
          156 -98 86 -217 vhcurveto
          -112 hlineto
          hintmask 11011100
          88 -23 callsubr
          117 114 vlineto
          200 113 4 callgsubr
          -38 -63 -141 vhcurveto
          -127 280 110 hlineto
          123 73 -31 -104 hvcurveto
          endchar
        </CharString>
        <CharString name="U">
          -54 callsubr
          384 104 -90 callgsubr
        </CharString>
        <CharString name="Uacute">
          -54 callsubr
          395 -51 callgsubr
          91 -654 -90 callgsubr
        </CharString>
        <CharString name="Ucircumflex">
          -46 callgsubr
          78 134 hstemhm
          88 -34 callsubr
          hintmask 10111100
          384 104 -91 callgsubr
          hintmask 01111100
          -50 callgsubr
          hintmask 10111100
          -39 callsubr
          vhcurveto
          -48 787 -103 callsubr
        </CharString>
        <CharString name="Udieresis">
          -46 callgsubr
          74 -2 callsubr
          88 118 34 -43 callgsubr
          14 118 hintmask 10111101
          240 815 -100 callgsubr
          hintmask 10111111
          -102 callsubr
          hintmask 10111101
          -41 -711 -91 callgsubr
          hintmask 01111101
          -50 callgsubr
          hintmask 10111101
          -39 callsubr
          vhcurveto
          endchar
        </CharString>
        <CharString name="Ugrave">
          -54 callsubr
          490 -52 callgsubr
          -4 -653 -90 callgsubr
        </CharString>
        <CharString name="V">
          28 -22 callsubr
          3 694 vstem
          416 hmoveto
          281 699 rlineto
          -132 hlineto
          -215 -522 -215 522 rlineto
          -132 hlineto
          281 -699 rlineto
          endchar
        </CharString>
        <CharString name="W">
          375 -8 113 594 -20 hstem
          88 115 260 120 261 115 vstem
          844 699 rmoveto
          -431 vlineto
          -104 -49 -59 -85 -81 -46 59 104 vhcurveto
          -1 431 rlineto
          -118 hlineto
          -1 -431 rlineto
          -104 -46 -59 -81 -85 -48 59 104 vhcurveto
          431 -115 -431 vlineto
          -175 90 -101 157 75 69 34 60 44 vhcurveto
          -60 42 69 -34 78 hhcurveto
          157 90 101 175 hvcurveto
          431 vlineto
          endchar
        </CharString>
        <CharString name="X">
          5 -22 callsubr
          16 643 vstem
          512 hmoveto
          147 hlineto
          -240 359 223 340 rlineto
          -146 hlineto
          -156 -236 rlineto
          -5 hlineto
          -156 236 rlineto
          -146 hlineto
          223 -340 -240 -359 rlineto
          147 hlineto
          172 263 rlineto
          5 hlineto
          endchar
        </CharString>
        <CharString name="Y">
          52 -91 callsubr
          endchar
        </CharString>
        <CharString name="Yacute">
          -48 -91 callsubr
          215 631 -88 callsubr
        </CharString>
        <CharString name="Z">
          -8 callsubr
          -75 callgsubr
          endchar
        </CharString>
        <CharString name="Zcaron">
          -8 callsubr
          61 134 -75 callgsubr
          339 169 -93 callsubr
        </CharString>
        <CharString name="a">
          -71 callsubr
          hstemhm
          47 112 320 112 hintmask 10101100
          -68 callgsubr
          hintmask 01011100
          -87 -74 callsubr
          hintmask 10101100
          -104 callsubr
          endchar
        </CharString>
        <CharString name="aacute">
          -38 callgsubr
          352 600 -96 callsubr
          -203 -334 -94 callsubr
          endchar
        </CharString>
        <CharString name="acircumflex">
          -71 callsubr
          88 134 -39 callgsubr
          hintmask 10101110
          266 734 -103 callgsubr
          -323 -468 -94 callsubr
          endchar
        </CharString>
        <CharString name="acute">
          161 628 145 hstem
          338 224 vstem
          440 628 -88 callsubr
        </CharString>
        <CharString name="adieresis">
          -71 callsubr
          88 -2 callsubr
          47 112 28 -43 callgsubr
          -16 112 hintmask 1010110010000000
          -68 callgsubr
          hintmask 0101110010000000
          -87 -74 callsubr
          hintmask 1010110010000000
          -104 callsubr
          hintmask 1010111100000000
          -137 571 -101 callsubr
        </CharString>
        <CharString name="ae">
          280 -8 96 142 86 128 96 -93 93 hstemhm
          41 112 247 113 285 112 hintmask 11101110
          910 230 rmoveto
          64 vlineto
          159 -112 87 -140 -68 -66 -25 -49 -48 vhcurveto
          53 -39 -66 21 -72 hhcurveto
          -77 -70 -19 -58 -73 hvcurveto
          hintmask 11011110
          50 -70 rlineto
          35 52 44 19 58 hhcurveto
          65 53 -26 -80 hvcurveto
          -24 -145 vlineto
          -126 -89 -43 -111 -104 94 -67 108 70 78 18 78 65 hvcurveto
          -62 47 74 -34 83 hhcurveto
          75 70 18 71 69 hvcurveto
          -64 70 rlineto
          -46 -38 -49 -17 -55 hhcurveto
          -80 -74 53 89 -1 hvcurveto
          -113 -32 rmoveto
          -69 -62 -42 -78 -59 -48 26 54 59 56 4 65 vhcurveto
          126 hlineto
          114 87 rmoveto
          hintmask 11101110
          82 7 69 45 74 hhcurveto
          71 58 -41 -87 5 hvcurveto
          endchar
        </CharString>
        <CharString name="agrave">
          -38 callgsubr
          47 266 -94 callsubr
          101 509 -38 callsubr
        </CharString>
        <CharString name="ampersand">
          22 -8 97 538 89 hstemhm
          49 111 -21 111 173 106 hintmask 11101000
          547 330 rmoveto
          -11 -40 -16 -36 -21 -31 -67 70 -27 36 -36 44 rrcurveto
          98 54 62 58 75 vvcurveto
          106 -99 50 -84 vhcurveto
          hintmask 11011000
          -112 -95 -54 -112 -67 28 -33 46 -53 hvcurveto
          hintmask 11101000
          -103 -55 -61 -66 -80 vvcurveto
          -132 113 -72 123 69 79 15 66 72 vhcurveto
          92 -91 75 70 -41 39 -32 31 -29 29 rlinecurve
          21 33 20 40 18 48 rrcurveto
          -337 -183 rmoveto
          -73 -59 41 61 53 48 46 65 35 hvcurveto
          28 -34 56 -64 76 -80 rrcurveto
          -37 -45 -50 -21 -46 hhcurveto
          hintmask 11011000
          -42 463 rmoveto
          47 46 28 38 43 46 -22 -57 -33 -34 -32 -79 -39 vhcurveto
          -40 48 -20 27 33 vvcurveto
          endchar
        </CharString>
        <CharString name="approxequal">
          20 190 112 -32 112 32 112 -32 112 hstemhm
          89 106 302 106 hintmask 01011100
          hintmask 01101100
          603 602 rmoveto
          -63 callgsubr
          hintmask 01101100
          -11 callgsubr
          hintmask 10011100
          -224 vmoveto
          -63 callgsubr
          hintmask 10011100
          -11 callgsubr
          endchar
        </CharString>
        <CharString name="aring">
          -71 callsubr
          71 49 111 49 hstemhm
          47 112 51 53 110 54 52 112 hintmask 1010111111000000
          -68 callgsubr
          hintmask 0101111111000000
          -87 -74 callsubr
          hintmask 1010111111000000
          -104 callsubr
          103 596 -59 callsubr
        </CharString>
        <CharString name="asciicircum">
          -278 742 156 hstem
          22 345 vstem
          273 742 rmoveto
          94 hlineto
          -121 156 rlineto
          -102 hlineto
          -122 -156 rlineto
          97 hlineto
          77 83 rlineto
          endchar
        </CharString>
        <CharString name="asciitilde">
          -96 283 203 -199 130 -65 129 hstemhm
          47 126 -126 482 hintmask 10001000
          hintmask 01001000
          281 315 rmoveto
          -19 37 24 -9 36 hhcurveto
          82 60 53 110 9 hvcurveto
          -127 36 rlineto
          -48 -5 -8 -21 -10 hhcurveto
          -14 -28 16 11 -22 hvcurveto
          hintmask 00110000
          -21 11 rlineto
          17 -39 -22 9 -36 hhcurveto
          -81 -60 -50 -111 -9 hvcurveto
          126 -37 rlineto
          50 5 7 19 11 hhcurveto
          13 28 -14 -12 21 hvcurveto
          hintmask 01001000
          24 -12 rlineto
          endchar
        </CharString>
        <CharString name="asterisk">
          -240 540 -20 179 -20 hstem
          185 61 vstem
          337 430 rmoveto
          34 59 -103 51 103 50 -34 58 -94 -62 7 113 rlineto
          -68 hlineto
          7 -113 -94 63 -34 -59 102 -50 -102 -51 34 -58 95 64 -8 -115 rlineto
          68 hlineto
          -8 114 rlineto
          endchar
        </CharString>
        <CharString name="at">
          232 -126 44 103 61 -61 93 304 97 114 44 hstemhm
          51 44 107 101 271 96 137 50 hintmask 1101111110000000
          630 -22 rmoveto
          -42 -45 -75 -18 -64 hhcurveto
          -199 -152 149 198 200 164 164 199 214 135 -176 -206 -105 -44 -60 -38 -31 -24 19 51 hvcurveto
          349 -96 -67 vlineto
          42 -23 -60 39 -63 hhcurveto
          -140 -86 -114 -135 hvcurveto
          hintmask 1011111110000000
          -148 108 -97 109 68 69 33 96 42 vhcurveto
          hintmask 1101111110000000
          -83 3 41 -46 65 hhcurveto
          91 59 97 144 229 -175 182 -224 -225 -182 -182 -226 -223 171 -168 224 71 87 26 41 48 hvcurveto
          -216 477 rmoveto
          87 52 -66 -81 hvcurveto
          hintmask 1011111110000000
          -84 -48 -73 -90 -85 -49 75 83 vhcurveto
          hintmask 1101111110000000
          77 52 69 81 vhcurveto
          endchar
        </CharString>
        <CharString name="atilde">
          -71 callsubr
          85 -62 callgsubr
          47 112 -13 -13 callgsubr
          1 112 hintmask 1010101001000000
          -68 callgsubr
          hintmask 0101101001000000
          -87 -74 callsubr
          hintmask 1010101001000000
          -104 callsubr
          hintmask 1010101010000000
          154 636 -70 callgsubr
          hintmask 1010010101000000
          -95 callgsubr
          hintmask 1010101010000000
          -79 callsubr
        </CharString>
        <CharString name="b">
          0 -8 100 -71 -21 442 98 202 -20 hstemhm
          81 -32 callgsubr
          hintmask 10111100
          -26 callgsubr
          303 9 callgsubr
          hintmask 01111100
          -742 112 vlineto
          hintmask 10111100
          80 vlineto
          -58 53 64 -30 64 hhcurveto
          -50 callsubr
        </CharString>
        <CharString name="backslash">
          -150 21 -21 8 callgsubr
          28 464 vstem
          28 757 rmoveto
          364 -757 rlineto
          100 hlineto
          -364 757 rlineto
          endchar
        </CharString>
        <CharString name="bar">
          -415 -153 935 hstem
          87 83 vstem
          87 -153 rmoveto
          83 935 -83 hlineto
          endchar
        </CharString>
        <CharString name="braceleft">
          -10 callgsubr
          114 100 vstem
          284 -146 rmoveto
          93 vlineto
          -56 -14 12 34 hvcurveto
          235 vlineto
          53 -29 22 -37 6 vhcurveto
          37 7 29 20 55 vvcurveto
          217 vlineto
          69 70 -13 0 vhcurveto
          93 -34 vlineto
          -63 -73 -20 -112 hvcurveto
          -208 vlineto
          -47 -17 -15 -33 vhcurveto
          -24 -93 24 hlineto
          33 17 -14 -46 hvcurveto
          -216 vlineto
          -112 73 -20 63 vhcurveto
          endchar
        </CharString>
        <CharString name="braceright">
          -10 callgsubr
          122 100 vstem
          86 -146 rmoveto
          63 73 20 112 hvcurveto
          216 vlineto
          46 17 14 33 vhcurveto
          24 93 -24 hlineto
          -33 -17 15 47 hvcurveto
          208 vlineto
          112 -73 20 -63 vhcurveto
          -34 -93 hlineto
          0 70 13 -69 vvcurveto
          -217 vlineto
          -55 29 -20 37 -7 vhcurveto
          -37 -6 -29 -22 -53 vvcurveto
          -235 vlineto
          -34 -14 -12 -56 vhcurveto
          -93 vlineto
          endchar
        </CharString>
        <CharString name="bracketleft">
          0 callsubr
          88 88 vstem
          314 757 rmoveto
          -226 -897 226 84 -138 729 138 hlineto
          endchar
        </CharString>
        <CharString name="bracketright">
          0 callsubr
          179 88 vstem
          41 673 rmoveto
          138 -729 -138 -84 226 897 -226 hlineto
          endchar
        </CharString>
        <CharString name="breve">
          -130 578 85 hstem
          100 342 vstem
          442 726 rmoveto
          -83 hlineto
          -38 -12 -25 -25 -51 hhcurveto
          -51 -25 25 38 -12 hvcurveto
          -83 hlineto
          -94 7 68 -54 96 hhcurveto
          96 68 54 94 7 hvcurveto
          endchar
        </CharString>
        <CharString name="brokenbar">
          -396 8 callgsubr
          91 94 vstem
          91 430 rmoveto
          94 327 -94 hlineto
          -781 vmoveto
          94 327 -94 hlineto
          endchar
        </CharString>
        <CharString name="bullet">
          -244 187 258 hstem
          85 258 vstem
          85 316 rmoveto
          -71 58 -58 71 71 58 58 71 71 -58 58 -71 -71 -58 -58 -71 vhcurveto
          endchar
        </CharString>
        <CharString name="c">
          -96 -8 102 342 104 hstem
          46 -21 callsubr
          541 -62 callsubr
          -168 129 -105 142 77 81 31 67 66 hvcurveto
          endchar
        </CharString>
        <CharString name="caron">
          -124 760 134 hstem
          100 348 vstem
          326 760 -93 callsubr
        </CharString>
        <CharString name="ccedilla">
          -95 -20 callgsubr
          157 -79 -21 442 104 hstemhm
          47 112 163 87 hintmask 01011100
          hintmask 01101100
          542 -62 callsubr
          hvcurveto
          hintmask 01011100
          -155 109 -101 129 -15 vhcurveto
          hintmask 10101110
          -33 -62 -67 callsubr
          17 33 rlineto
          hintmask 01101100
          65 8 65 31 56 56 rrcurveto
          endchar
        </CharString>
        <CharString name="cedilla">
          -391 -20 callgsubr
          63 hstemhm
          148 87 hintmask 01110000
          -12 callgsubr
          -71 hlineto
          -36 -68 -44 callsubr
          hvcurveto
          hintmask 10110000
          -37 callgsubr
          vhcurveto
          hintmask 01110000
          -26 -57 rlineto
          hintmask 10110000
          -66 callgsubr
          endchar
        </CharString>
        <CharString name="cent">
          -86 15 -21 543 -20 22 -20 hstemhm
          49 112 128 64 hintmask 10111000
          289 -122 rmoveto
          64 116 hlineto
          67 7 67 31 57 58 -66 72 rcurveline
          -34 -35 -41 -27 -50 -5 rrcurveto
          339 vlineto
          50 -5 37 -25 33 -28 66 81 rcurveline
          -51 51 -70 26 -65 5 rrcurveto
          117 -64 vlineto
          hintmask 11011000
          -119 vlineto
          -130 -18 -110 -101 -153 vvcurveto
          -156 111 -101 129 -14 vhcurveto
          -128 273 rmoveto
          87 58 59 70 17 vhcurveto
          -330 vlineto
          -75 20 -53 67 80 vvcurveto
          endchar
        </CharString>
        <CharString name="circumflex">
          2 600 134 hstem
          166 348 vstem
          288 734 -103 callsubr
        </CharString>
        <CharString name="colon">
          -379 -8 149 96 8 callsubr
          72 9 callsubr
          72 -27 callgsubr
          245 vmoveto
          -90 callsubr
        </CharString>
        <CharString name="comma">
          -391 20 -21 hstem
          66 9 callsubr
          70 -105 rmoveto
          58 hlineto
          60 99 rlineto
          15 24 12 21 26 vvcurveto
          44 -35 31 -41 -38 -35 -31 -44 -30 17 -25 24 -11 vhcurveto
          endchar
        </CharString>
        <CharString name="copyright">
          160 -12 43 122 74 248 75 117 45 hstem
          54 47 124 80 429 -83 callgsubr
          -151 -126 rmoveto
          -48 52 rlineto
          -28 -26 -35 -21 -41 hhcurveto
          -71 -57 57 69 76 61 46 65 43 31 -21 -23 27 hvcurveto
          48 59 rlineto
          42 -40 -58 18 -53 hhcurveto
          -107 -97 -76 -124 -121 93 -76 103 55 59 21 50 48 hvcurveto
          endchar
        </CharString>
        <CharString name="currency">
          83 13 -21 51 106 335 107 -21 callgsubr
          324 -19 callgsubr
          60 62 rmoveto
          70 -70 94 93 rlineto
          -27 43 52 -15 58 hhcurveto
          58 52 15 27 43 hvcurveto
          95 -93 70 70 -92 91 rlineto
          34 46 20 56 62 vvcurveto
          60 -19 55 -32 45 vhcurveto
          89 89 -71 70 -90 -90 rlineto
          28 -44 -54 17 -59 hhcurveto
          -59 -54 -16 -28 -43 hvcurveto
          -90 89 -71 -70 88 -88 rlineto
          -33 -45 -18 -56 -60 vvcurveto
          -62 19 -57 34 -46 vhcurveto
          227 -3 rmoveto
          -93 -69 69 99 99 69 68 93 93 69 -68 -99 -99 -69 -69 -93 hvcurveto
          endchar
        </CharString>
        <CharString name="d">
          -64 callgsubr
          202 -18 callsubr
          hintmask 10111100
          47 266 -75 callsubr
          24 64 45 vhcurveto
          hintmask 01111100
          -80 112 742 -112 -292 vlineto
          64 -46 -64 26 -66 hhcurveto
          hintmask 10111100
          -101 callgsubr
          endchar
        </CharString>
        <CharString name="dagger">
          -149 -173 -21 586 102 207 -20 hstem
          206 106 vstem
          206 -194 rmoveto
          106 586 176 102 -176 207 -106 -207 -170 -102 170 hlineto
          endchar
        </CharString>
        <CharString name="daggerdbl">
          -155 -173 -21 269 82 235 102 207 -20 hstem
          204 106 vstem
          310 392 rmoveto
          170 102 -170 207 -106 -207 -166 -102 166 -235 -110 -82 110 -269 106 269 107 82 -107 hlineto
          endchar
        </CharString>
        <CharString name="degree">
          -256 408 51 203 53 hstem
          54 52 203 53 vstem
          208 715 rmoveto
          -85 -69 -69 -85 -85 69 -68 85 85 69 68 85 85 -69 69 -85 hvcurveto
          -1 -256 rmoveto
          -56 -45 45 58 55 45 45 56 57 45 -45 -55 -58 -45 -45 -57 hvcurveto
          endchar
        </CharString>
        <CharString name="dieresis">
          -62 601 123 hstem
          166 -43 callgsubr
          vstem
          166 663 -101 callsubr
        </CharString>
        <CharString name="divide">
          -104 136 149 55 94 57 8 callsubr
          210 9 callsubr
          210 211 rmoveto
          -99 callgsubr
          355 vmoveto
          -99 callgsubr
          -162 -132 6 callgsubr
        </CharString>
        <CharString name="dollar">
          -53 0 107 -86 -21 22 -21 599 107 -1 -20 21 -20 70 -20 hstemhm
          65 122 96 64 104 122 hintmask 0010011111000000
          hintmask 0100101111000000
          283 -72 rmoveto
          64 72 hlineto
          134 7 92 75 125 vvcurveto
          114 -76 53 -147 35 vhcurveto
          -3 188 hlineto
          47 -7 49 -18 47 -33 65 92 rcurveline
          -65 44 -65 25 -78 6 rrcurveto
          51 -64 vlineto
          hintmask 0010011111000000
          -50 vlineto
          -128 -7 -90 -78 -115 vvcurveto
          -123 78 -47 140 -33 vhcurveto
          -194 vlineto
          -65 10 -54 30 -54 47 -73 -87 rcurveline
          72 -63 84 -37 90 -9 rrcurveto
          hintmask 1001001111000000
          168 194 rmoveto
          -49 -40 -33 -64 -6 vhcurveto
          180 vlineto
          83 -25 21 -25 -42 vvcurveto
          -264 323 rmoveto
          42 34 35 62 5 vhcurveto
          -173 vlineto
          -76 24 -20 23 44 vvcurveto
          endchar
        </CharString>
        <CharString name="dotaccent">
          -343 611 8 callsubr
          112 9 callsubr
          112 686 rmoveto
          -90 callsubr
        </CharString>
        <CharString name="dotlessi">
          -25 callsubr
          -30 callgsubr
          endchar
        </CharString>
        <CharString name="e">
          -23 callgsubr
          -106 callsubr
          endchar
        </CharString>
        <CharString name="eacute">
          -89 callsubr
          189 337 -88 callsubr
        </CharString>
        <CharString name="ecircumflex">
          -23 callgsubr
          60 134 -106 callsubr
          105 471 -103 callsubr
        </CharString>
        <CharString name="edieresis">
          -23 callgsubr
          60 -2 callsubr
          46 108 4 -43 callgsubr
          hintmask 11110000
          -107 callsubr
          hintmask 11101100
          4 399 -101 callsubr
        </CharString>
        <CharString name="egrave">
          -89 callsubr
          252 337 -38 callsubr
        </CharString>
        <CharString name="eight">
          -36 -8 102 229 88 210 92 hstemhm
          57 117 -91 109 252 109 -91 117 hintmask 11110010
          hintmask 11101100
          318 713 rmoveto
          -133 -102 -77 -112 -66 36 -42 39 -32 hvcurveto
          hintmask 11110010
          -58 -37 -43 -58 -85 vvcurveto
          -117 102 -95 159 159 102 95 117 85 -43 58 -58 37 vhcurveto
          hintmask 11110100
          39 32 36 42 66 vvcurveto
          hintmask 11101100
          112 -102 77 -133 vhcurveto
          hintmask 11110010
          -619 vmoveto
          -59 -85 34 78 83 79 34 65 65 79 -34 -83 -78 -85 -34 -59 hvcurveto
          hintmask 11101100
          317 vmoveto
          -65 -61 43 65 56 58 46 68 68 58 -46 -56 -65 -61 -43 -65 hvcurveto
          endchar
        </CharString>
        <CharString name="ellipsis">
          26 -8 8 callsubr
          66 149 60 149 60 149 cntrmask 01110000
          66 -27 callgsubr
          209 hmoveto
          -99 callgsubr
          209 hmoveto
          -90 callsubr
        </CharString>
        <CharString name="emdash">
          53 227 66 hstem
          82 561 vstem
          82 227 rmoveto
          561 66 -561 hlineto
          endchar
        </CharString>
        <CharString name="endash">
          -134 226 67 hstem
          82 374 vstem
          82 226 rmoveto
          374 67 -374 hlineto
          endchar
        </CharString>
        <CharString name="equal">
          -48 246 94 94 94 hstem
          60 504 vstem
          60 528 rmoveto
          -94 504 94 vlineto
          -504 -188 rmoveto
          -94 504 94 vlineto
          endchar
        </CharString>
        <CharString name="eth">
          -76 -8 98 284 98 230 -20 66 -20 29 -20 hstemhm
          50 109 279 109 hintmask 11101110
          hintmask 11110110
          400 748 rmoveto
          hintmask 11101110
          -85 -54 -14 13 -25 23 -34 27 rlinecurve
          -95 -55 19 -16 37 -28 17 -18 rlinecurve
          -94 -60 57 -54 93 59 3 -3 45 -46 43 -46 32 -53 rlinecurve
          -2 -2 rlineto
          27 -27 -39 10 -42 hhcurveto
          -129 -110 -97 -143 -144 110 -96 138 164 85 116 159 143 -84 127 -92 100 hvcurveto
          hintmask 11110110
          88 57 rlineto
          -161 -604 rmoveto
          -86 -53 67 75 74 53 68 86 87 53 -68 -74 -75 -53 -67 -87 hvcurveto
          endchar
        </CharString>
        <CharString name="exclam">
          -377 -8 149 575 -20 hstemhm
          74 149 -145 140 hintmask 11010000
          78 716 rmoveto
          -129 vlineto
          30 -361 rlineto
          80 hlineto
          30 361 rlineto
          129 vlineto
          hintmask 11100000
          -144 -650 rmoveto
          -40 34 -34 40 41 34 34 40 41 -34 34 -41 -40 -34 -34 -41 vhcurveto
          endchar
        </CharString>
        <CharString name="exclamdown">
          -378 13 -21 572 149 hstemhm
          73 149 -145 139 hintmask 11010000
          216 -8 rmoveto
          126 vlineto
          -29 361 rlineto
          -80 hlineto
          -30 -361 rlineto
          -126 vlineto
          hintmask 11100000
          -4 647 rmoveto
          -41 34 -34 40 41 34 34 41 40 -34 34 -41 -40 -34 -34 -40 vhcurveto
          endchar
        </CharString>
        <CharString name="f">
          -302 21 -21 352 90 170 104 -37 callsubr
          193 536 rmoveto
          60 39 16 44 37 37 -20 -19 18 vhcurveto
          46 90 rlineto
          36 -40 -57 17 -45 hhcurveto
          -109 -82 -66 -117 hvcurveto
          -533 112 352 140 90 -140 vlineto
          endchar
        </CharString>
        <CharString name="fi">
          11 21 -21 439 93 196 99 hstem
          124 112 256 -21 callsubr
          596 673 rmoveto
          90 -31 -79 64 -107 hhcurveto
          -157 -98 -111 -140 hvcurveto
          -44 -87 -93 87 -12 callsubr
          37 74 102 81 26 -63 -40 10 vhcurveto
          112 -625 rmoveto
          -9 callgsubr
          endchar
        </CharString>
        <CharString name="five">
          -93 -108 113 238 102 148 107 hstem
          84 107 223 117 vstem
          486 600 rmoveto
          -402 -336 hlineto
          50 -54 rlineto
          22 40 46 11 43 hhcurveto
          80 71 -39 -82 -80 -67 -37 -75 -91 -68 67 0 hvcurveto
          -63 -86 rlineto
          -27 24 70 -67 131 hhcurveto
          143 113 98 135 142 -117 78 -123 -33 -32 -5 -19 -35 hvcurveto
          172 295 vlineto
          endchar
        </CharString>
        <CharString name="fl">
          13 -105 99 27 -21 439 93 196 99 hstemhm
          124 112 256 112 hintmask 01111100
          492 133 rmoveto
          hintmask 10111100
          -136 26 -102 137 18 17 2 3 19 vhcurveto
          -3 32 -5 32 -2 36 rrcurveto
          -4 -10 -10 -2 -11 hhcurveto
          -57 -7 48 38 hvcurveto
          486 vlineto
          155 -73 106 -158 -157 -92 -111 -140 vhcurveto
          -44 -87 -93 87 vlineto
          hintmask 01111100
          -12 callsubr
          31 74 102 92 31 -71 -97 vhcurveto
          endchar
        </CharString>
        <CharString name="florin">
          2 -212 101 436 93 242 97 -53 -20 hstemhm
          28 615 hintmask 11101000
          399 325 rmoveto
          143 hlineto
          12 93 rlineto
          -143 hlineto
          22 159 rlineto
          50 7 34 33 44 hhcurveto
          30 22 -16 -19 15 hvcurveto
          hintmask 11011000
          58 79 rlineto
          hintmask 11101000
          36 -35 -49 17 -45 hhcurveto
          -89 -92 -66 -117 -16 hvcurveto
          -21 -156 rlineto
          -69 hlineto
          -12 -93 rlineto
          69 hlineto
          -49 -350 rlineto
          -41 -6 -29 -45 -44 hhcurveto
          -28 -30 17 19 -20 hvcurveto
          -50 -29 callsubr
          116 59 87 89 13 hvcurveto
          endchar
        </CharString>
        <CharString name="four">
          -100 29 108 474 101 hstem
          -75 123 480 120 vstem
          170 183 rmoveto
          253 416 rlineto
          -129 hlineto
          -257 -419 rlineto
          -104 300 -176 112 176 84 107 -84 128 -112 -128 vlineto
          endchar
        </CharString>
        <CharString name="fraction">
          -37 -22 callsubr
          -2 641 vstem
          639 699 -35 callgsubr
          endchar
        </CharString>
        <CharString name="g">
          -18 -212 99 137 102 324 90 -8 -20 hstemhm
          48 110 303 112 hintmask 11101100
          62 -69 callsubr
          hintmask 11011100
          457 9 callgsubr
          hintmask 11101100
          -64 vlineto
          46 -45 -51 26 -75 hhcurveto
          -145 -97 -116 -138 -152 100 -110 142 75 68 40 44 28 hvcurveto
          -30 vlineto
          -120 -46 -71 -102 -74 -53 37 68 -26 vhcurveto
          149 134 rmoveto
          -99 -52 79 81 81 52 83 99 90 62 -74 -90 -90 -62 -70 -90 hvcurveto
          endchar
        </CharString>
        <CharString name="germandbls">
          -21 0 98 554 105 hstemhm
          81 118 248 114 -74 118 hintmask 11101000
          305 322 rmoveto
          1 12 12 0 11 hhcurveto
          85 62 -34 -83 -84 -64 -24 -92 hvcurveto
          -22 -98 41 hlineto
          169 86 85 121 81 -42 87 -106 12 hvcurveto
          hintmask 11110000
          77 48 27 55 65 vvcurveto
          79 -43 124 -192 -245 0 -223 -78 vhcurveto
          -456 118 466 vlineto
          115 31 71 107 84 26 -62 -44 -65 -42 -51 -100 -15 vhcurveto
          endchar
        </CharString>
        <CharString name="grave">
          161 745 -20 hstem
          316 224 vstem
          540 -52 callsubr
          endchar
        </CharString>
        <CharString name="greater">
          -80 117 561 hstem
          428 -6 callsubr
          547 -48 callgsubr
          endchar
        </CharString>
        <CharString name="greaterequal">
          -57 -52 98 hstem
          429 -6 callsubr
          548 -48 callgsubr
          -472 -288 rmoveto
          -98 472 98 vlineto
          endchar
        </CharString>
        <CharString name="guillemotleft">
          -125 7 callsubr
          56 425 vstem
          283 416 -61 callsubr
          313 176 -61 callsubr
          endchar
        </CharString>
        <CharString name="guillemotright">
          -125 7 callsubr
          66 425 vstem
          379 240 -60 callsubr
          -83 -176 -60 callsubr
          endchar
        </CharString>
        <CharString name="guilsinglleft">
          -323 7 callsubr
          56 227 vstem
          283 416 -61 callsubr
          endchar
        </CharString>
        <CharString name="guilsinglright">
          -323 7 callsubr
          66 227 vstem
          181 240 -60 callsubr
          endchar
        </CharString>
        <CharString name="h">
          -22 callgsubr
          201 -20 hstem
          81 -45 callgsubr
          vstem
          -84 callgsubr
          -72 -39 -66 -32 vhcurveto
          306 -112 -741 112 vlineto
          endchar
        </CharString>
        <CharString name="hbar">
          -22 callgsubr
          34 87 -87 167 hstemhm
          81 -40 callgsubr
          hintmask 11101100
          351 661 rmoveto
          -158 hlineto
          hintmask 11011100
          80 9 callgsubr
          hintmask 11101100
          -80 -37 vlineto
          hintmask 11011100
          -87 37 -574 112 288 vlineto
          -86 callsubr
          -72 -39 -66 -32 vhcurveto
          139 158 vlineto
          endchar
        </CharString>
        <CharString name="hungarumlaut">
          -166 746 -20 hstem
          52 418 vstem
          154 601 -96 callsubr
          296 hmoveto
          -95 callsubr
          endchar
        </CharString>
        <CharString name="hyphen">
          -196 246 105 hstem
          72 332 vstem
          72 246 rmoveto
          332 105 -332 hlineto
          endchar
        </CharString>
        <CharString name="i">
          -36 callgsubr
          105 142 hstemhm
          67 142 -128 112 hintmask 11101000
          193 hmoveto
          -9 callgsubr
          hintmask 11110000
          -14 688 -71 callgsubr
          endchar
        </CharString>
        <CharString name="iacute">
          -25 callsubr
          190 600 2 callsubr
          91 -110 49 -106 -140 rlineto
          -15 -68 -49 callsubr
          endchar
        </CharString>
        <CharString name="icircumflex">
          -36 callgsubr
          88 134 -37 callsubr
          -30 callgsubr
          -103 202 -103 callsubr
        </CharString>
        <CharString name="idieresis">
          -36 callgsubr
          88 -2 callsubr
          -8 123 -34 112 -16 123 hintmask 11101000
          hintmask 11110100
          -8 662 -107 callgsubr
          hintmask 11101000
          -96 -130 -49 callsubr
          endchar
        </CharString>
        <CharString name="igrave">
          -36 callgsubr
          233 -20 -37 callsubr
          200 -52 callsubr
          -17 -68 -49 callsubr
          endchar
        </CharString>
        <CharString name="ij">
          -69 -212 104 129 -45 callsubr
          105 142 hstemhm
          67 142 -128 112 201 142 -126 112 hintmask 11110101
          193 hmoveto
          -9 callgsubr
          hintmask 11111001
          -14 688 -71 callgsubr
          343 -713 -76 callgsubr
          hintmask 11110110
          -16 156 -71 callgsubr
          endchar
        </CharString>
        <CharString name="infinity">
          196 82 93 176 90 hstem
          71 91 544 91 vstem
          434 322 rmoveto
          62 -52 -57 57 -87 hhcurveto
          -104 -63 -79 -100 -102 66 -78 105 86 51 53 58 55 hvcurveto
          -58 55 51 -53 86 hhcurveto
          105 66 78 102 100 -63 79 -104 -87 -57 -57 -62 -52 hvcurveto
          -58 -63 rmoveto
          -36 -32 -52 -48 -51 hhcurveto
          -49 -30 40 49 48 29 39 47 51 54 -57 -35 33 hvcurveto
          116 hmoveto
          35 33 54 57 51 hhcurveto
          47 29 -39 -48 -49 -30 -40 -49 -51 -52 48 36 -32 hvcurveto
          endchar
        </CharString>
        <CharString name="integral">
          -284 -170 98 847 93 hstemhm
          139 98 -82 97 hintmask 11010000
          372 855 rmoveto
          6 -11 -26 7 -24 hhcurveto
          hintmask 11100000
          -140 -32 -115 -151 hvcurveto
          hintmask 11010000
          -168 16 -144 -177 vvcurveto
          -105 -6 -80 -73 -20 -17 7 5 -10 vhcurveto
          -16 -93 rlineto
          -8 14 32 -9 30 hhcurveto
          135 28 124 144 hvcurveto
          hintmask 11100000
          175 -15 156 162 vvcurveto
          100 1 84 82 15 14 -5 -5 10 vhcurveto
          endchar
        </CharString>
        <CharString name="itilde">
          -36 callgsubr
          85 -62 callgsubr
          -20 74 27 112 44 75 hintmask 11100110
          -30 callgsubr
          119 195 -70 callgsubr
          hintmask 11011110
          -95 callgsubr
          hintmask 11100110
          -79 callsubr
        </CharString>
        <CharString name="j">
          -212 104 640 -20 105 142 hstemhm
          65 142 -126 112 hintmask 11101000
          81 -25 -76 callgsubr
          hintmask 11110000
          -16 156 -71 callgsubr
          endchar
        </CharString>
        <CharString name="jcircumflex">
          -212 104 640 -20 88 134 -37 callsubr
          81 -25 -76 callgsubr
          7 202 -103 callsubr
        </CharString>
        <CharString name="k">
          -91 -36 callgsubr
          230 -20 -37 callsubr
          -59 callgsubr
          endchar
        </CharString>
        <CharString name="kcedilla">
          -91 -20 callgsubr
          63 -36 callgsubr
          230 -20 callsubr
          121 87 hintmask 01011110
          -59 callgsubr
          hintmask 10101111
          -217 hmoveto
          -71 hlineto
          -36 -68 -60 callgsubr
          hintmask 01011110
          -26 -57 rlineto
          hintmask 10101111
          -66 callgsubr
          endchar
        </CharString>
        <CharString name="kgreenlandic">
          -91 -25 callsubr
          -51 callsubr
          226 -112 -532 -42 callgsubr
          endchar
        </CharString>
        <CharString name="l">
          -328 -8 103 604 -20 hstem
          76 112 -53 callgsubr
          endchar
        </CharString>
        <CharString name="ldot">
          -269 -8 103 149 149 306 -20 hstem
          76 112 76 149 -53 callgsubr
          -83 281 rmoveto
          -90 callsubr
        </CharString>
        <CharString name="less">
          -80 117 561 hstem
          45 -6 callsubr
          45 -48 callsubr
          endchar
        </CharString>
        <CharString name="lessequal">
          -57 -52 98 hstem
          67 -6 callsubr
          67 -48 callsubr
          -414 vmoveto
          -98 472 98 vlineto
          endchar
        </CharString>
        <CharString name="logicalnot">
          156 357 88 hstem
          654 82 vstem
          67 445 rmoveto
          -88 587 -269 82 357 vlineto
          endchar
        </CharString>
        <CharString name="lozenge">
          -22 33 435 hstem
          91 468 vstem
          91 33 rmoveto
          468 435 -468 hlineto
          endchar
        </CharString>
        <CharString name="lslash">
          -352 -22 callsubr
          104 -21 callsubr
          22 216 rmoveto
          82 23 rlineto
          -239 112 270 vlineto
          75 22 rlineto
          105 vlineto
          -75 -22 rlineto
          324 -112 -355 vlineto
          -82 -23 rlineto
          endchar
        </CharString>
        <CharString name="m">
          342 21 -21 439 101 -33 callsubr
          256 -40 callgsubr
          193 288 rmoveto
          106 74 45 70 77 35 -45 -102 vhcurveto
          -292 112 296 vlineto
          100 3 72 43 69 hhcurveto
          77 45 -45 -102 hvcurveto
          -292 112 326 vlineto
          144 -86 70 -115 -76 -65 -30 -74 -56 vhcurveto
          70 -30 -61 34 -80 hhcurveto
          -73 -72 -39 -66 -32 hvcurveto
          hintmask 10111100
          -28 callgsubr
          endchar
        </CharString>
        <CharString name="macron">
          -248 600 87 hstem
          59 307 vstem
          366 687 rmoveto
          -307 -87 307 hlineto
          endchar
        </CharString>
        <CharString name="minus">
          -104 340 94 hstem
          48 472 vstem
          48 434 6 callgsubr
        </CharString>
        <CharString name="mu">
          -30 -6 callgsubr
          101 -72 -45 callsubr
          hstemhm
          86 -40 callgsubr
          86 -194 rmoveto
          112 203 hlineto
          -11 26 30 -6 33 hhcurveto
          73 68 39 66 36 hvcurveto
          hintmask 10111100
          -97 -55 callgsubr
          -112 -288 vlineto
          hintmask 11011100
          -74 callgsubr
          vlineto
          endchar
        </CharString>
        <CharString name="multiply">
          -107 146 468 hstem
          48 469 vstem
          283 443 rmoveto
          -170 171 -64 -64 170 -169 -171 -171 64 -64 171 171 171 -171 63 64 -170 171 169 169 -63 64 rlineto
          endchar
        </CharString>
        <CharString name="n">
          -78 callgsubr
          endchar
        </CharString>
        <CharString name="nacute">
          -78 callgsubr
          172 628 -88 callsubr
        </CharString>
        <CharString name="nine">
          -53 -108 106 156 104 251 103 hstem
          51 107 290 -21 callsubr
          77 -37 rmoveto
          -31 40 58 -40 103 hhcurveto
          147 135 99 265 188 -67 168 -201 -135 -106 -87 -144 -139 99 -88 122 84 66 47 30 26 hvcurveto
          -134 -1 -51 -99 -130 hhcurveto
          -68 -62 52 0 hvcurveto
          293 331 rmoveto
          -78 -65 -45 -75 -86 -45 60 69 70 54 52 83 76 58 -61 -67 vhcurveto
          endchar
        </CharString>
        <CharString name="notequal">
          -37 225 108 99 108 160 -20 hstem
          64 504 vstem
          64 333 rmoveto
          -108 139 vlineto
          -74 -160 rlineto
          100 hlineto
          74 160 rlineto
          265 108 -214 hlineto
          46 99 rlineto
          168 108 -118 hlineto
          75 160 rlineto
          -100 hlineto
          -75 -160 rlineto
          -286 -108 236 hlineto
          -46 -99 rlineto
          endchar
        </CharString>
        <CharString name="ntilde">
          -22 callgsubr
          -8 -20 85 -62 callgsubr
          81 112 -28 -13 callgsubr
          -38 112 hintmask 1101010010000000
          -79 callgsubr
          hintmask 1011010100000000
          -28 callgsubr
          304 727 -70 callgsubr
          hintmask 1100101010000000
          -95 callgsubr
          hintmask 1101010100000000
          31 53 -47 48 hhcurveto
          hintmask 1011010100000000
          63 27 52 78 2 hvcurveto
          endchar
        </CharString>
        <CharString name="numbersign">
          63 21 -21 160 110 166 110 170 -20 hstem
          43 650 vstem
          671 436 rmoveto
          22 110 rlineto
          -112 hlineto
          31 170 rlineto
          -112 hlineto
          -29 -170 rlineto
          -147 hlineto
          29 170 rlineto
          -111 hlineto
          -29 -170 rlineto
          -111 hlineto
          -22 -110 rlineto
          114 hlineto
          -29 -166 rlineto
          -100 hlineto
          -22 -110 rlineto
          103 hlineto
          -28 -160 rlineto
          112 hlineto
          28 160 rlineto
          147 hlineto
          -28 -160 rlineto
          111 hlineto
          28 160 rlineto
          119 hlineto
          22 110 rlineto
          -123 hlineto
          29 166 rlineto
          -110 hmoveto
          -30 -166 rlineto
          -147 hlineto
          30 166 rlineto
          endchar
        </CharString>
        <CharString name="o">
          -33 callgsubr
          -94 callgsubr
          endchar
        </CharString>
        <CharString name="oacute">
          -33 callgsubr
          205 -20 -94 callgsubr
          51 608 -88 callsubr
        </CharString>
        <CharString name="ocircumflex">
          -33 callgsubr
          60 134 -94 callgsubr
          -51 742 -103 callsubr
        </CharString>
        <CharString name="odieresis">
          -33 callgsubr
          60 -2 callsubr
          2 callgsubr
          10 -43 callgsubr
          18 112 hintmask 11010010
          168 662 -107 callgsubr
          hintmask 11111110
          -27 -570 -73 callgsubr
        </CharString>
        <CharString name="oe">
          394 -8 100 345 103 -100 100 hstemhm
          -41 callsubr
          hintmask 10111000
          771 540 rmoveto
          -82 -86 -37 -69 -54 hvcurveto
          64 -50 -79 42 -94 hhcurveto
          -85 callsubr
          93 79 40 64 50 hvcurveto
          -67 52 82 -37 87 hhcurveto
          -100 callsubr
          -445 -448 -81 callgsubr
          hvcurveto
          -1 vlineto
          -7 vlineto
          -99 -4 -70 -67 -94 hhcurveto
          280 174 rmoveto
          9 -1 10 -1 9 vhcurveto
          hintmask 11011000
          97 16 86 46 71 hhcurveto
          52 46 -21 -45 23 hvcurveto
          -293 -126 rlineto
          hintmask 10111000
          7 1 7 7 vvcurveto
          endchar
        </CharString>
        <CharString name="ogonek">
          -457 -212 66 hstem
          18 68 vstem
          71 -8 rmoveto
          -21 -30 rlineto
          -18 -26 -14 -34 -29 vvcurveto
          -51 42 -34 46 47 27 28 28 17 vhcurveto
          -48 34 rlineto
          -11 -6 -13 -13 -18 hhcurveto
          -16 -10 11 20 13 5 23 18 30 hvcurveto
          25 41 rlineto
          endchar
        </CharString>
        <CharString name="ograve">
          -33 callgsubr
          205 -20 hstem
          -41 callsubr
          vstem
          395 -52 callsubr
          33 -508 -73 callgsubr
        </CharString>
        <CharString name="one">
          -291 21 -21 494 105 hstem
          171 -21 callsubr
          29 599 rmoveto
          -105 142 -494 112 599 vlineto
          endchar
        </CharString>
        <CharString name="onehalf">
          256 0 66 -53 -21 364 62 161 5 callsubr
          622 67 hintmask 10111110
          623 757 rmoveto
          hintmask 01111110
          -36 callsubr
          110 -463 rmoveto
          -30 -27 -31 -49 -50 vhcurveto
          hintmask 10111110
          -124 -4 callsubr
          96 97 rlineto
          59 60 18 33 41 vvcurveto
          78 -64 43 -68 -67 -39 -31 -50 -33 vhcurveto
          54 -32 rlineto
          26 18 24 25 42 hhcurveto
          hintmask 01111110
          38 28 -25 -37 hvcurveto
          hintmask 10111110
          -770 346 -27 callsubr
        </CharString>
        <CharString name="onequarter">
          191 1 callgsubr
          413 5 callsubr
          526 65 hintmask 10011110
          591 757 rmoveto
          hintmask 01011110
          -36 callsubr
          hintmask 10011110
          -8 callgsubr
          hintmask 00111110
          -1 callsubr
          hintmask 10011110
          -103 65 vlineto
          hintmask 00111110
          103 50 vlineto
          hintmask 10011110
          63 -50 75 -65 -75 vlineto
          -674 474 -27 callsubr
        </CharString>
        <CharString name="onesuperior">
          -404 579 61 hstem
          124 65 vstem
          41 640 -27 callsubr
        </CharString>
        <CharString name="ordfeminine">
          -320 462 46 163 42 -42 45 hstemhm
          62 52 148 52 hintmask 10111000
          62 589 rmoveto
          -78 57 -49 59 30 33 15 29 21 vhcurveto
          -40 52 vlineto
          hintmask 11011000
          247 -52 vlineto
          hintmask 10111000
          -43 vlineto
          31 -21 -29 15 -32 hhcurveto
          -58 -60 -45 -82 hvcurveto
          128 -81 rmoveto
          -39 -37 31 49 48 34 35 42 39 34 -34 -50 -46 -34 -33 -39 hvcurveto
          endchar
        </CharString>
        <CharString name="ordmasculine">
          -294 456 48 165 47 hstem
          56 53 160 53 vstem
          189 504 rmoveto
          -46 -34 33 49 49 34 34 46 46 34 -34 -49 -49 -34 -33 -46 hvcurveto
          -48 vmoveto
          77 56 58 72 72 -56 58 -77 -77 -56 -58 -72 -72 56 -58 77 hvcurveto
          endchar
        </CharString>
        <CharString name="oslash">
          -20 -8 100 -72 -21 441 100 hstemhm
          -41 callsubr
          hintmask 10111000
          326 -8 rmoveto
          -56 callsubr
          93 -44 81 -71 50 hvcurveto
          62 132 rlineto
          -100 hlineto
          -44 -94 rlineto
          8 -26 -28 4 -29 hhcurveto
          -65 callsubr
          -100 50 -86 81 -48 hvcurveto
          -64 -137 rlineto
          100 hlineto
          hintmask 01111000
          48 104 rlineto
          hintmask 10111000
          -4 21 21 -3 23 hhcurveto
          -168 274 rmoveto
          103 71 71 97 14 13 -1 -3 13 vhcurveto
          -145 -310 rlineto
          -39 31 -24 49 60 vvcurveto
          168 -174 rmoveto
          -7 -7 0 1 -7 hvcurveto
          140 299 rlineto
          31 -30 18 -44 -52 vvcurveto
          -103 -71 -71 -97 vhcurveto
          endchar
        </CharString>
        <CharString name="otilde">
          -33 callgsubr
          57 -62 callgsubr
          2 callgsubr
          2 -13 callgsubr
          2 112 hintmask 11101001
          -98 callgsubr
          hintmask 11101010
          166 735 -70 callgsubr
          hintmask 11010101
          -95 callgsubr
          hintmask 11101010
          -79 callsubr
        </CharString>
        <CharString name="p">
          0 -6 callgsubr
          100 350 98 -8 -20 hstemhm
          81 -32 callgsubr
          hintmask 11101100
          -26 callgsubr
          hintmask 11011100
          93 -112 -726 112 274 vlineto
          -58 53 60 -30 68 hhcurveto
          hintmask 11101100
          -50 callsubr
        </CharString>
        <CharString name="paragraph">
          -1 662 95 hstem
          277 90 112 93 vstem
          35 556 rmoveto
          -75 40 -117 156 14 16 1 2 16 vhcurveto
          -479 90 774 112 -774 93 869 -299 vlineto
          -172 -66 -99 -102 hvcurveto
          endchar
        </CharString>
        <CharString name="parenleft">
          -340 8 callgsubr
          50 111 vstem
          161 312 rmoveto
          158 64 183 74 104 vhcurveto
          -119 hlineto
          -58 -80 -72 -186 -179 vvcurveto
          -179 72 -186 58 -80 vhcurveto
          119 hlineto
          -74 104 -64 183 158 vvcurveto
          endchar
        </CharString>
        <CharString name="parenright">
          -340 8 callgsubr
          171 111 vstem
          171 312 rmoveto
          -158 -64 -183 -74 -104 vhcurveto
          119 hlineto
          58 80 72 186 179 vvcurveto
          179 -72 186 -58 80 vhcurveto
          -119 hlineto
          74 -104 64 -183 -158 vvcurveto
          endchar
        </CharString>
        <CharString name="partialdiff">
          -55 -8 109 245 99 168 100 hstem
          48 111 280 -19 callgsubr
          143 569 rmoveto
          0 51 44 68 141 24 -101 -106 11 vhcurveto
          1 -12 0 -6 -12 vvcurveto
          31 -25 -62 38 -86 hhcurveto
          -93 -125 -64 -139 -144 103 -106 137 202 67 173 194 257 -135 97 -148 -97 -57 -38 -29 -39 hvcurveto
          354 -400 rmoveto
          -85 -11 -56 -60 -81 hhcurveto
          -80 -47 50 78 -1 hvcurveto
          72 -1 56 45 64 hhcurveto
          65 50 -25 -49 44 hvcurveto
          endchar
        </CharString>
        <CharString name="percent">
          114 -8 85 -56 -21 219 92 86 87 142 90 -17 -20 hstemhm
          44 1 callsubr
          hintmask 1011101111000000
          346 557 -81 callsubr
          364 142 -35 callgsubr
          54 555 -31 callsubr
          -403 -61 callgsubr
          hintmask 0111011111000000
          -78 callsubr
          endchar
        </CharString>
        <CharString name="period">
          -392 -8 8 callsubr
          66 9 callsubr
          66 -27 callgsubr
          endchar
        </CharString>
        <CharString name="periodcentered">
          -381 244 8 callsubr
          71 9 callsubr
          71 319 rmoveto
          -90 callsubr
        </CharString>
        <CharString name="perthousand">
          494 -8 85 -56 -21 219 92 83 87 142 90 -14 -20 hstemhm
          48 1 callsubr
          81 95 115 92 hintmask 1011101111110000
          350 554 -81 callsubr
          364 145 -35 callgsubr
          54 552 -31 callsubr
          -400 -61 callgsubr
          -40 -24 -31 -33 -31 -27 31 40 40 24 31 33 31 27 -31 -40 vhcurveto
          475 4 -61 callgsubr
          hintmask 0100010001000000
          -78 callsubr
          endchar
        </CharString>
        <CharString name="pi">
          74 21 -21 432 100 hstem
          30 97 99 112 153 -21 callsubr
          135 322 rmoveto
          -5 11 -3 13 13 vvcurveto
          44 33 29 50 vhcurveto
          16 hlineto
          -3 -121 -30 -200 -37 -111 rrcurveto
          111 hlineto
          37 97 29 215 5 120 rrcurveto
          153 -432 112 432 116 100 -516 hlineto
          -117 -56 -70 -89 -29 7 -29 14 -28 hvcurveto
          endchar
        </CharString>
        <CharString name="plus">
          -104 340 5 callgsubr
          150 rmoveto
          90 190 191 94 -191 188 -90 -188 -191 -94 191 hlineto
          endchar
        </CharString>
        <CharString name="plusminus">
          -104 136 84 191 5 callgsubr
          276 rmoveto
          90 135 191 94 -191 133 -90 -133 -191 -94 191 hlineto
          -191 -191 rmoveto
          -84 472 84 vlineto
          endchar
        </CharString>
        <CharString name="product">
          129 -191 -21 887 113 hstem
          92 124 369 124 vstem
          709 -212 rmoveto
          1000 -617 -1000 124 887 369 -887 vlineto
          endchar
        </CharString>
        <CharString name="q">
          0 -6 callgsubr
          100 350 98 -8 -18 callsubr
          hintmask 11101100
          47 266 rmoveto
          -166 123 -108 128 68 60 30 58 53 vhcurveto
          -274 112 vlineto
          hintmask 11011100
          726 -112 -93 vlineto
          hintmask 11101100
          72 -47 -66 29 -66 hhcurveto
          -126 -127 -97 -177 hvcurveto
          277 -174 rmoveto
          -85 -80 67 106 102 74 75 91 84 73 -73 -106 -101 -73 -70 -84 hvcurveto
          endchar
        </CharString>
        <CharString name="question">
          -164 -5 148 467 104 hstemhm
          170 154 -135 113 34 119 hintmask 11011000
          302 217 rmoveto
          45 vlineto
          49 16 12 34 34 vhcurveto
          55 51 48 40 82 vvcurveto
          119 -87 65 -112 -121 -85 -70 -120 -14 vhcurveto
          121 hlineto
          51 5 36 35 53 hhcurveto
          49 36 -37 -50 -23 -8 -22 -15 -16 hvcurveto
          -73 -73 rlineto
          -39 -40 -12 -15 -56 vvcurveto
          -61 vlineto
          hintmask 11101000
          -19 -149 rmoveto
          -41 37 -32 40 42 35 34 41 41 -36 32 -41 -42 -35 -34 -41 vhcurveto
          endchar
        </CharString>
        <CharString name="questiondown">
          -164 -7 104 467 148 hstemhm
          53 119 12 154 -132 113 hintmask 11101000
          206 490 rmoveto
          -45 vlineto
          -49 -16 -12 -34 -34 vhcurveto
          -55 -51 -48 -40 -82 vvcurveto
          -119 87 -65 112 121 85 70 120 14 vhcurveto
          -121 hlineto
          -51 -5 -36 -35 -53 hhcurveto
          -49 -36 37 50 23 8 22 15 16 hvcurveto
          73 73 rlineto
          39 40 12 15 56 vvcurveto
          61 vlineto
          hintmask 11110000
          19 149 rmoveto
          41 -37 32 -40 -42 -35 -34 -41 -41 36 -32 41 42 35 34 41 vhcurveto
          endchar
        </CharString>
        <CharString name="quotedbl">
          -298 453 246 hstem
          77 78 64 78 vstem
          77 453 -3 callgsubr
          142 -246 -3 callgsubr
          endchar
        </CharString>
        <CharString name="quotedblbase">
          -303 -81 200 hstemhm
          46 127 25 127 hintmask 11000000
          -44 callgsubr
          hintmask 11100000
          -47 callgsubr
        </CharString>
        <CharString name="quotedblleft">
          -302 505 200 -86 86 0 -20 hstemhm
          35 127 26 127 hintmask 00110000
          -4 callgsubr
          hintmask 10010000
          -24 callsubr
          37 27 26 37 vhcurveto
          hintmask 01010000
          7 callgsubr
          vhcurveto
          192 86 rmoveto
          hintmask 00111000
          -61 hlineto
          -59 -85 rlineto
          hintmask 10011000
          -24 callsubr
          37 27 26 37 vhcurveto
          hintmask 01011000
          7 callgsubr
          vhcurveto
          endchar
        </CharString>
        <CharString name="quotedblright">
          -303 500 200 0 -20 hstemhm
          46 127 25 127 hintmask 01100000
          hintmask 10100000
          -47 callsubr
          hintmask 10110000
          -47 callgsubr
        </CharString>
        <CharString name="quoteleft">
          -456 619 86 0 -20 hstemhm
          35 127 hintmask 01100000
          -4 callgsubr
          -24 callsubr
          vhcurveto
          hintmask 10100000
          37 27 26 37 7 callgsubr
          hvcurveto
          endchar
        </CharString>
        <CharString name="quoteright">
          -455 700 -20 hstem
          46 127 vstem
          -47 callsubr
          endchar
        </CharString>
        <CharString name="quotesinglbase">
          -455 -81 200 hstem
          46 127 vstem
          -44 callgsubr
          endchar
        </CharString>
        <CharString name="quotesingle">
          -440 453 246 0 -20 hstemhm
          77 78 hintmask 01100000
          hintmask 10100000
          77 453 -3 callgsubr
          endchar
        </CharString>
        <CharString name="r">
          -275 21 -21 427 113 -33 callsubr
          hintmask 10110000
          hintmask 11010000
          365 540 -15 callsubr
          hintmask 10110000
          -24 callgsubr
          hintmask 11010000
          -15 callgsubr
          endchar
        </CharString>
        <CharString name="radical">
          45 311 99 347 -20 hstem
          24 688 vstem
          24 311 rmoveto
          101 hlineto
          152 -467 rlineto
          136 hlineto
          299 913 rlineto
          -113 hlineto
          -253 -782 -139 435 rlineto
          -183 hlineto
          endchar
        </CharString>
        <CharString name="rcaron">
          -275 21 -21 427 113 -8 -20 88 134 -16 callgsubr
          hintmask 10111000
          hintmask 11011000
          365 540 -15 callsubr
          hintmask 10111000
          -24 callgsubr
          hintmask 11011000
          -15 callgsubr
          -98 173 -93 callsubr
        </CharString>
        <CharString name="rcommaaccent">
          -275 -250 195 76 -21 427 113 -33 callsubr
          hintmask 11011000
          41 -250 -5 callsubr
          hintmask 11101000
          259 595 -15 callsubr
          hintmask 11011000
          -24 callgsubr
          hintmask 11101000
          -15 callgsubr
          endchar
        </CharString>
        <CharString name="registered">
          160 -12 43 257 60 141 59 119 45 hstem
          54 47 177 68 178 67 143 -83 callgsubr
          -143 70 rmoveto
          89 -46 39 -120 vhcurveto
          -147 -391 68 131 69 hlineto
          17 hlineto
          94 -131 rlineto
          84 hlineto
          -104 141 rlineto
          55 16 30 36 70 vvcurveto
          -67 hmoveto
          -47 -18 -25 -79 vhcurveto
          -81 141 83 hlineto
          70 25 -17 -52 hvcurveto
          endchar
        </CharString>
        <CharString name="ring">
          -295 583 49 111 49 hstem
          80 53 110 54 vstem
          297 687 -59 callsubr
        </CharString>
        <CharString name="s">
          -166 -8 97 357 94 -86 callgsubr
          endchar
        </CharString>
        <CharString name="scaron">
          -166 -8 97 357 94 60 134 -86 callgsubr
          -156 436 -93 callsubr
        </CharString>
        <CharString name="section">
          -62 -138 93 693 94 hstemhm
          51 94 -50 107 220 105 -53 93 hintmask 11100100
          145 317 rmoveto
          50 53 24 56 78 142 -24 -78 -50 -53 -31 -68 -121 -87 46 63 vhcurveto
          hintmask 11010100
          57 258 rmoveto
          40 36 33 63 56 48 -14 -41 55 vhcurveto
          57 80 rlineto
          48 -67 -59 21 -88 hhcurveto
          -120 -88 -71 -106 -48 26 -43 55 -22 hvcurveto
          hintmask 11101000
          -83 -16 -42 -63 -60 vvcurveto
          -114 94 -41 125 -36 vhcurveto
          110 -32 42 -23 -44 vvcurveto
          -47 -41 -21 -66 -76 -57 32 49 -59 vhcurveto
          -64 -76 rlineto
          -65 73 88 -33 92 hhcurveto
          135 80 78 88 43 -25 57 -67 24 hvcurveto
          hintmask 11100100
          98 23 34 64 60 vvcurveto
          101 -71 42 -149 36 vhcurveto
          hintmask 11010100
          -117 28 -28 21 48 vvcurveto
          endchar
        </CharString>
        <CharString name="semicolon">
          -376 20 -21 238 8 callsubr
          73 9 callsubr
          77 -105 rmoveto
          58 hlineto
          61 99 rlineto
          14 24 13 22 26 vvcurveto
          44 -35 31 -42 -38 -35 -31 -44 -30 18 -25 23 -12 vhcurveto
          -41 313 rmoveto
          -90 callsubr
        </CharString>
        <CharString name="seven">
          -106 492 107 hstem
          46 107 vstem
          46 398 rmoveto
          107 94 248 hlineto
          -289 -592 rlineto
          130 hlineto
          296 594 rlineto
          105 -492 vlineto
          endchar
        </CharString>
        <CharString name="six">
          -52 -8 103 251 104 156 106 hstem
          60 112 293 104 vstem
          543 641 rmoveto
          31 -40 -58 40 -103 hhcurveto
          -147 -135 -99 -265 -188 67 -168 201 135 106 87 144 139 -99 88 -122 -84 -66 -47 -30 -26 hvcurveto
          134 1 51 99 130 hhcurveto
          68 62 -52 0 hvcurveto
          -293 -331 rmoveto
          78 65 45 75 86 48 -60 -69 -70 -57 -52 -83 -76 -58 61 67 vhcurveto
          endchar
        </CharString>
        <CharString name="slash">
          -85 -117 928 hstem
          28 533 vstem
          461 811 rmoveto
          -433 -928 rlineto
          100 hlineto
          433 928 rlineto
          endchar
        </CharString>
        <CharString name="space">
          endchar
        </CharString>
        <CharString name="sterling">
          -56 0 105 182 98 247 110 hstem
          145 -19 callgsubr
          263 516 rmoveto
          88 55 28 56 48 34 -28 -40 24 vhcurveto
          83 66 rlineto
          71 -42 -66 41 -89 hhcurveto
          -120 -101 -60 -172 hvcurveto
          -125 -86 -98 86 -182 -82 -105 498 105 -298 182 167 98 -167 vlineto
          endchar
        </CharString>
        <CharString name="summation">
          31 -212 113 774 113 hstem
          37 626 vstem
          663 -212 rmoveto
          113 -453 vlineto
          286 394 -267 380 rlineto
          414 113 -593 -89 hlineto
          290 -405 -303 -417 rlineto
          -89 vlineto
          endchar
        </CharString>
        <CharString name="t">
          -285 -8 97 353 90 167 -20 hstem
          76 -21 callsubr
          188 442 rmoveto
          140 90 -140 167 -112 -524 hlineto
          -117 82 -66 89 45 47 17 36 40 vhcurveto
          -46 79 rlineto
          -19 -18 -24 -16 -30 hhcurveto
          -44 -29 33 50 hvcurveto
          endchar
        </CharString>
        <CharString name="thorn">
          0 -6 callgsubr
          99 351 98 202 -20 hstem
          -2 callgsubr
          312 120 vstem
          625 266 rmoveto
          156 -104 118 -156 -109 -63 -81 0 vhcurveto
          283 -112 -936 112 267 vlineto
          0 55 -81 115 160 102 114 160 vhcurveto
          -120 hmoveto
          -91 -69 -84 -91 -93 -61 82 93 93 61 83 93 93 67 -83 -93 vhcurveto
          endchar
        </CharString>
        <CharString name="three">
          -94 -109 108 228 91 176 105 hstem
          409 -21 callsubr
          330 494 rmoveto
          -162 -188 rlineto
          -90 vlineto
          8 26 26 3 23 hhcurveto
          108 58 -50 -63 -82 -66 -33 -74 -59 -68 23 37 -53 hvcurveto
          -50 -95 rlineto
          -49 73 82 -24 74 hhcurveto
          138 115 81 148 100 -69 94 -135 4 hvcurveto
          169 189 rlineto
          92 -409 -105 vlineto
          endchar
        </CharString>
        <CharString name="threequarters">
          229 1 callgsubr
          54 64 135 54 104 62 118 -20 hstemhm
          63 242 -46 66 425 65 hintmask 1001111011000000
          632 757 rmoveto
          hintmask 0101111011000000
          -36 callsubr
          hintmask 1001111011000000
          -8 callgsubr
          hintmask 0011111011000000
          -1 callsubr
          hintmask 1001111011000000
          -103 65 vlineto
          hintmask 0011111011000000
          103 50 vlineto
          hintmask 1001111011000000
          63 -50 75 -65 -75 vlineto
          -538 411 -68 callsubr
          hintmask 1001111101000000
          -7 callsubr
        </CharString>
        <CharString name="threesuperior">
          -276 220 64 135 54 104 62 hstemhm
          77 242 -46 66 hintmask 11101000
          226 577 -68 callsubr
          hintmask 11110000
          -7 callsubr
        </CharString>
        <CharString name="tilde">
          -153 739 -62 callgsubr
          95 -13 callgsubr
          hintmask 10110000
          427 869 -70 callgsubr
          hintmask 01110000
          -95 callgsubr
          hintmask 10110000
          -79 callsubr
        </CharString>
        <CharString name="trademark">
          328 636 63 hstem
          183 69 201 69 324 69 vstem
          252 636 rmoveto
          124 63 -317 -63 124 -346 69 hlineto
          412 35 rmoveto
          39 hlineto
          143 284 rlineto
          -319 69 409 -107 vlineto
          -124 -257 -123 257 rlineto
          -108 -409 69 319 hlineto
          endchar
        </CharString>
        <CharString name="two">
          -83 0 113 397 106 hstem
          395 -6 callsubr
          395 432 rmoveto
          -39 -39 -43 -106 -88 vhcurveto
          -192 -162 rlineto
          -100 478 113 -317 vlineto
          105 89 rlineto
          144 120 46 59 64 vvcurveto
          100 -88 71 -127 -107 -75 -41 -98 -67 vhcurveto
          95 -55 rlineto
          59 39 51 29 63 hhcurveto
          61 36 -28 -50 hvcurveto
          endchar
        </CharString>
        <CharString name="twosuperior">
          -253 298 66 290 62 hstem
          271 66 vstem
          271 592 rmoveto
          -30 -27 -31 -50 -50 vhcurveto
          -123 -4 callsubr
          95 97 rlineto
          59 61 18 32 41 vvcurveto
          78 -63 43 -68 -68 -39 -31 -50 -33 vhcurveto
          55 -32 rlineto
          26 17 25 25 42 hhcurveto
          38 28 -24 -38 hvcurveto
          endchar
        </CharString>
        <CharString name="u">
          -40 callsubr
          -29 callgsubr
          hintmask 10111000
          -80 callsubr
          hintmask 01111000
          -97 -74 callsubr
          endchar
        </CharString>
        <CharString name="uacute">
          -40 callsubr
          186 -20 69 -20 -29 callgsubr
          hintmask 10111110
          -80 callsubr
          hintmask 01111110
          -97 -74 callsubr
          -103 70 -88 callsubr
        </CharString>
        <CharString name="ucircumflex">
          -40 callsubr
          88 134 -29 callgsubr
          hintmask 10111100
          -80 callsubr
          hintmask 01111100
          -97 -74 callsubr
          -183 202 -103 callsubr
        </CharString>
        <CharString name="udieresis">
          -40 callsubr
          88 -2 callsubr
          75 112 -25 -43 callgsubr
          -17 112 hintmask 10111001
          hintmask 10110110
          162 662 -107 callgsubr
          hintmask 10111001
          106 -418 -92 callsubr
          hintmask 01111001
          -97 -74 callsubr
          endchar
        </CharString>
        <CharString name="ugrave">
          -40 callsubr
          233 -20 -29 callgsubr
          hintmask 10111100
          393 -52 callsubr
          162 -356 -92 callsubr
          hintmask 01111100
          -97 -74 callsubr
          endchar
        </CharString>
        <CharString name="underscore">
          50 -138 57 hstem
          72 578 vstem
          72 -138 rmoveto
          578 57 -578 hlineto
          endchar
        </CharString>
        <CharString name="v">
          -100 -5 callgsubr
          8 556 hintmask 01110000
          222 hmoveto
          128 hlineto
          214 532 -3 callsubr
          hintmask 10110000
          -162 -402 -162 402 -3 callsubr
          endchar
        </CharString>
        <CharString name="w">
          240 -5 callgsubr
          18 876 hintmask 01110000
          330 hmoveto
          126 364 126 -364 rlineto
          128 hlineto
          184 532 -3 callsubr
          hintmask 10110000
          -11 callsubr
          -11 callsubr
          184 -532 rlineto
          endchar
        </CharString>
        <CharString name="x">
          -114 -36 callgsubr
          hstem
          19 520 vstem
          166 532 rmoveto
          -137 hlineto
          179 -261 -189 -271 rlineto
          131 hlineto
          124 177 127 -177 rlineto
          138 hlineto
          -194 272 186 260 rlineto
          -133 hlineto
          -118 -175 rlineto
          endchar
        </CharString>
        <CharString name="y">
          -27 -87 callgsubr
          endchar
        </CharString>
        <CharString name="yacute">
          -98 -87 callgsubr
          180 635 -88 callsubr
        </CharString>
        <CharString name="ydieresis">
          -98 -30 callsubr
          88 -2 callsubr
          72 112 -46 -43 callgsubr
          4 112 hintmask 1101110010000000
          -82 callsubr
          hintmask 1110110010000000
          -76 callsubr
          hintmask 1101101100000000
          -14 669 -101 callsubr
        </CharString>
        <CharString name="yen">
          43 0 212 -88 88 60 88 339 -20 hstemhm
          292 125 hintmask 01111000
          102 212 rmoveto
          -88 190 vlineto
          hintmask 10111000
          -124 125 vlineto
          hintmask 01111000
          124 189 88 -188 54 vlineto
          3 6 rlineto
          185 88 -131 hlineto
          208 339 rlineto
          -127 hlineto
          -196 -321 rlineto
          -7 hlineto
          -189 321 rlineto
          -129 hlineto
          201 -339 rlineto
          -134 -88 186 hlineto
          4 -6 rlineto
          -54 vlineto
          endchar
        </CharString>
        <CharString name="z">
          -132 4 callsubr
          -73 callsubr
          endchar
        </CharString>
        <CharString name="zcaron">
          -131 4 callsubr
          70 134 -73 callsubr
          251 307 -93 callsubr
        </CharString>
        <CharString name="zero">
          16 -8 101 422 101 hstem
          59 114 340 116 vstem
          173 304 rmoveto
          128 67 83 104 103 66 -83 -128 -128 -66 -83 -103 -104 -67 83 128 vhcurveto
          -114 hmoveto
          -189 112 -123 173 173 112 123 189 189 -112 123 -173 -173 -112 -123 -189 vhcurveto
          endchar
        </CharString>
      <CharString index="0">
        -100 callgsubr
        -102 callsubr
        return
      </CharString>
      <CharString index="1">
        rmoveto
        -54 callgsubr
        -139 -107 -114 -140 -140 -107 114 139 -63 callsubr
        hvcurveto
        -615 vmoveto
        -56 callgsubr
        -85 callgsubr
        -207 161 -155 207 hvcurveto
        return
      </CharString>
      <CharString index="2">
        -81 callgsubr
        -103 -71 -71 -97 hvcurveto
        -100 vmoveto
        -56 callsubr
        152 -118 122 -162 -85 callsubr
        hvcurveto
        return
      </CharString>
      <CharString index="3">
        -21 callgsubr
        319 121 vstem
        655 472 rmoveto
        156 -81 71 -217 vhcurveto
        -260 -32 callsubr
        235 124 hlineto
        31 hlineto
        167 -235 rlineto
        150 hlineto
        -183 254 rlineto
        97 29 54 65 124 vvcurveto
        -121 hmoveto
        -84 -31 -46 -141 vhcurveto
        -147 250 150 hlineto
        125 44 -26 -94 hvcurveto
        return
      </CharString>
      <CharString index="4">
        rmoveto
        -122 -1 callgsubr
        97 hlineto
        77 56 77 -56 rlineto
        97 hlineto
        -122 134 rlineto
        return
      </CharString>
      <CharString index="5">
        88 hmoveto
        -105 callsubr
        return
      </CharString>
      <CharString index="6">
        -126 -130 -97 -177 hvcurveto
        277 -175 rmoveto
        -85 -80 67 106 103 74 75 91 84 73 -73 -107 -101 -73 -70 -84 hvcurveto
        return
      </CharString>
      <CharString index="7">
        rmoveto
        -35 27 -27 34 -97 callsubr
        -34 -27 -27 -34 vhcurveto
        return
      </CharString>
      <CharString index="8">
        -42 33 -33 41 41 34 34 41 41 -33 33 -42 -41 -33 -33 -41 vhcurveto
        return
      </CharString>
      <CharString index="9">
        326 92 -105 callgsubr
        return
      </CharString>
      <CharString index="10">
        -86 -41 -29 -68 -62 vvcurveto
        -137 102 -75 175 107 76 29 21 39 vhcurveto
        -92 callgsubr
        return
      </CharString>
      <CharString index="11">
        420 608 -106 callgsubr
        return
      </CharString>
      <CharString index="12">
        -34 -54 47 -50 hhcurveto
        -57 -32 -54 -76 hvcurveto
        74 hlineto
        36 1 15 8 18 hhcurveto
        return
      </CharString>
      <CharString index="13">
        hstem
        -41 callsubr
        vstem
        -98 callgsubr
        return
      </CharString>
      <CharString index="14">
        59 85 rlineto
        11 16 7 16 20 vvcurveto
        40 -30 23 -33 -37 -27 -26 -37 -21 9 -19 18 -11 vhcurveto
        -38 -86 rlineto
        return
      </CharString>
      <CharString index="15">
        -32 106 rlineto
        -22 -35 -72 -20 -72 hhcurveto
        -84 -82 22 79 109 122 -2 95 hvcurveto
        83 106 -95 hlineto
        return
      </CharString>
      <CharString index="16">
        rmoveto
        -109 -69 79 129 hvcurveto
        387 -118 -392 vlineto
        -209 131 -105 165 76 59 30 42 43 vhcurveto
        return
      </CharString>
      <CharString index="17">
        -91 callgsubr
        hintmask 01111000
        -50 callgsubr
        hintmask 10111000
        -39 callsubr
        vhcurveto
        endchar
      </CharString>
      <CharString index="18">
        129 67 69 109 110 67 -73 -130 vhcurveto
        -119 -353 vlineto
        return
      </CharString>
      <CharString index="19">
        rmoveto
        -134 494 134 106 -380 -106 128 -494 -128 -106 380 hlineto
        return
      </CharString>
      <CharString index="20">
        -30 callsubr
        hstemhm
        72 -40 callgsubr
        -82 callsubr
        hintmask 11101100
        -76 callsubr
        return
      </CharString>
      <CharString index="21">
        hstem
        65 108 176 111 vstem
        460 164 rmoveto
        99 -87 33 -77 24 vhcurveto
        -62 20 -61 1 47 vvcurveto
        40 39 18 51 45 54 -15 -28 42 vhcurveto
        42 83 rlineto
        37 -56 -62 17 -66 hhcurveto
        -105 -92 -61 -102 -94 100 -38 66 -18 hvcurveto
        62 -19 56 -14 -43 vvcurveto
        -35 -30 -27 -52 -54 -69 27 43 -57 vhcurveto
        -54 -87 rlineto
        -52 66 90 -28 75 hhcurveto
        110 86 61 111 hvcurveto
        return
      </CharString>
      <CharString index="22">
        -65 callgsubr
        -70 callsubr
        return
      </CharString>
      <CharString index="23">
        193 288 rmoveto
        -86 callsubr
        return
      </CharString>
      <CharString index="24">
        44 vstem
        778 351 rmoveto
        199 -162 162 -199 -203 -160 -165 -198 -198 158 -163 203 203 160 165 198 vhcurveto
        -44 -1 rmoveto
        -174 -139 -145 -179 -178 -137 143 174 174 138 145 179 178 138 -143 -174 vhcurveto
        return
      </CharString>
      <CharString index="25">
        -14 callgsubr
        hstemhm
        97 -34 callsubr
        hintmask 11011000
        403 605 -72 callgsubr
        hintmask 10111000
        66 -23 callsubr
        397 vlineto
        hintmask 11011000
        129 79 79 109 vhcurveto
        return
      </CharString>
      <CharString index="26">
        rmoveto
        -97 -71 71 103 103 71 71 97 97 71 -71 -103 return
      </CharString>
      <CharString index="27">
        31 53 -47 48 hhcurveto
        63 27 52 78 2 hvcurveto
        return
      </CharString>
      <CharString index="28">
        -84 callgsubr
        -68 -39 -66 -36 vhcurveto
        return
      </CharString>
      <CharString index="29">
        -22 callgsubr
        -8 -20 3 callgsubr
        hintmask 11011000
        -79 callgsubr
        hintmask 10111000
        -28 callgsubr
        return
      </CharString>
      <CharString index="30">
        118 173 353 -173 119 408 return
      </CharString>
      <CharString index="31">
        rmoveto
        -54 -28 -29 -37 -22 -28 10 23 -24 vhcurveto
        -52 -29 callsubr
        89 82 66 117 hvcurveto
        561 9 callgsubr
        return
      </CharString>
      <CharString index="32">
        hstem
        47 577 vstem
        454 591 rmoveto
        -3 vlineto
        -171 -209 rlineto
        -196 -70 138 hlineto
        -178 -218 rlineto
        -91 577 109 -412 3 vlineto
        161 197 rlineto
        192 70 -134 hlineto
        187 228 rlineto
        92 -558 -108 vlineto
        return
      </CharString>
      <CharString index="33">
        -106 -74 -45 -70 -77 -45 45 102 vhcurveto
        292 -112 return
      </CharString>
      <CharString index="34">
        -105 callgsubr
        endchar
      </CharString>
      <CharString index="35">
        rmoveto
        109 59 -79 -129 hvcurveto
        -397 118 411 vlineto
        197 -124 107 -147 -66 -80 -25 -57 -57 vhcurveto
        return
      </CharString>
      <CharString index="36">
        rmoveto
        -39 32 -32 39 39 32 32 39 39 -32 32 -39 -39 -32 -32 -39 vhcurveto
        return
      </CharString>
      <CharString index="37">
        rmoveto
        -75 hlineto
        -33 -11 -11 -19 vhcurveto
        return
      </CharString>
      <CharString index="38">
        hstem
        -9 callsubr
        vstem
        114 593 rmoveto
        242 -471 hlineto
        -88 -75 -36 -56 -66 -42 35 40 -36 vhcurveto
        -70 -88 rlineto
        -71 64 83 -30 75 hhcurveto
        120 121 72 172 hvcurveto
        571 -360 vlineto
        return
      </CharString>
      <CharString index="39">
        47 266 -83 callsubr
        return
      </CharString>
      <CharString index="40">
        432 99 -88 callgsubr
        return
      </CharString>
      <CharString index="41">
        -16 26 26 -6 23 hhcurveto
        79 39 48 47 45 -25 28 -45 6 hvcurveto
        return
      </CharString>
      <CharString index="42">
        206 -161 155 -207 return
      </CharString>
      <CharString index="43">
        0 -8 99 -70 -21 442 98 return
      </CharString>
      <CharString index="44">
        -106 hlineto
        -57 -7 -17 -19 -30 hhcurveto
        -15 -21 8 11 -18 hvcurveto
        hintmask 01011100
        45 -73 -29 16 -53 hhcurveto
        -83 -62 -65 -123 hvcurveto
        106 hlineto
        57 7 17 19 30 hhcurveto
        16 19 -8 -11 19 hvcurveto
        return
      </CharString>
      <CharString index="45">
        130 -127 130 hstemhm
        return
      </CharString>
      <CharString index="46">
        -81 callsubr
        -92 -4 rmoveto
        return
      </CharString>
      <CharString index="47">
        -44 callsubr
        -37 callgsubr
        hvcurveto
        return
      </CharString>
      <CharString index="48">
        -51 callsubr
        436 -112 -742 -42 callgsubr
        return
      </CharString>
      <CharString index="49">
        -57 callgsubr
        -34 callgsubr
        hintmask 11110000
        return
      </CharString>
      <CharString index="50">
        -91 -7 114 208 106 179 116 return
      </CharString>
      <CharString index="51">
        207 161 155 207 return
      </CharString>
      <CharString index="52">
        112 532 return
      </CharString>
      <CharString index="53">
        140 107 -114 -140 return
      </CharString>
      <CharString index="54">
        vstem
        298 120 rmoveto
        -10 -6 -18 -15 -26 hhcurveto
        -44 -16 30 50 hvcurveto
        524 -112 -537 vlineto
        -117 69 -53 89 63 37 31 15 13 vhcurveto
        return
      </CharString>
      <CharString index="55">
        757 -87 callsubr
        return
      </CharString>
      <CharString index="56">
        758 -96 callsubr
        return
      </CharString>
      <CharString index="57">
        -65 118 699 -118 -387 vlineto
        return
      </CharString>
      <CharString index="58">
        21 -21 173 110 322 return
      </CharString>
      <CharString index="59">
        460 rmoveto
        -471 218 rlineto
        -114 vlineto
        352 -159 rlineto
        -11 vlineto
        -352 -163 rlineto
        -114 vlineto
        471 217 rlineto
        return
      </CharString>
      <CharString index="60">
        213 hmoveto
        -43 callsubr
      </CharString>
      <CharString index="61">
        105 -7 111 -83 -28 callsubr
        return
      </CharString>
      <CharString index="62">
        112 266 112 return
      </CharString>
      <CharString index="63">
        96 -81 -42 callsubr
        return
      </CharString>
      <CharString index="64">
        123 62 123 return
      </CharString>
      <CharString index="65">
        112 151 vlineto
        81 82 158 -233 rlineto
        136 hlineto
        return
      </CharString>
      <CharString index="66">
        -188 -7 106 494 106 return
      </CharString>
      <CharString index="67">
        -45 callgsubr
        hintmask 11011100
        return
      </CharString>
      <CharString index="68">
        hstemhm
        47 -32 callgsubr
        return
      </CharString>
      <CharString index="69">
        -71 callsubr
        233 -18 callsubr
        hintmask 10101110
        return
      </CharString>
      <CharString index="70">
        -20 -14 -19 -27 -12 -14 3 7 -13 return
      </CharString>
      <CharString index="71">
        21 -45 callsubr
        return
      </CharString>
      <CharString index="72">
        rmoveto
        -129 hlineto
        -512 -699 rlineto
        129 hlineto
        return
      </CharString>
      <CharString index="73">
        hstemhm
        50 122 -88 126 return
      </CharString>
      <CharString index="74">
        -20 -8 100 348 100 return
      </CharString>
      <CharString index="75">
        112 320 112 return
      </CharString>
      <CharString index="76">
        -112 -532 return
      </CharString>
      <CharString index="77">
        81 532 -49 callsubr
        return
      </CharString>
      <CharString index="78">
        hstemhm
        75 -45 callgsubr
        return
      </CharString>
      <CharString index="79">
        97 -112 -17 callsubr
        vlineto
        return
      </CharString>
      <CharString index="80">
        67 rmoveto
        -99 callgsubr
        return
      </CharString>
      <CharString index="81">
        625 266 rmoveto
        177 -127 97 -126 -66 -66 -29 -72 -47 vhcurveto
        return
      </CharString>
      <CharString index="82">
        -66 callsubr
        -46 callsubr
        return
      </CharString>
      <CharString index="83">
        107 -112 -17 callsubr
        228 vlineto
        return
      </CharString>
      <CharString index="84">
        -60 -8 101 344 103 return
      </CharString>
      <CharString index="85">
        -26 21 -21 439 101 return
      </CharString>
      <CharString index="86">
        hstem
        -16 callsubr
        return
      </CharString>
      <CharString index="87">
        -212 69 -48 -21 149 return
      </CharString>
      <CharString index="88">
        118 vstem
        return
      </CharString>
      <CharString index="89">
        hhcurveto
        -205 -163 -155 -207 return
      </CharString>
      <CharString index="90">
        rmoveto
        57 -52 48 -57 -57 -51 -48 -57 return
      </CharString>
      <CharString index="91">
        hstemhm
        -2 callgsubr
        return
      </CharString>
      <CharString index="92">
        114 52 88 121 -3 vhcurveto
        return
      </CharString>
      <CharString index="93">
        21 -21 605 110 -16 -20 return
      </CharString>
      <CharString index="94">
        74 183 75 return
      </CharString>
      <CharString index="95">
        185 hmoveto
        return
      </CharString>
      <CharString index="96">
        -44 72 29 -17 54 hhcurveto
        83 62 65 123 hvcurveto
        return
      </CharString>
      <CharString index="97">
        -336 -146 93 315 93 402 -20 hstem
        return
      </CharString>
      <CharString index="98">
        532 -31 callgsubr
        vlineto
        return
      </CharString>
      <CharString index="99">
        -52 -591 rmoveto
        148 243 rlineto
        -76 hlineto
        return
      </CharString>
      <CharString index="100">
        232 hlineto
        281 117 148 202 return
      </CharString>
      <CharString index="101">
        -173 -21 186 return
      </CharString>
      <CharString index="102">
        0 130 -109 -45 callsubr
        hstemhm
        return
      </CharString>
      <CharString index="103">
        173 705 rmoveto
        -61 hlineto
        -59 -85 rlineto
        return
      </CharString>
      <CharString index="104">
        rmoveto
        78 246 -78 hlineto
        return
      </CharString>
      <CharString index="105">
        81 112 return
      </CharString>
      <CharString index="106">
        -134 rlineto
        return
      </CharString>
      <CharString index="107">
        -158 -94 -81 -168 vhcurveto
        -131 return
      </CharString>
      <CharString index="108">
        0 166 -153 -21 111 63 return
      </CharString>
      <CharString index="109">
        46 112 return
      </CharString>
      <CharString index="110">
        hstemhm
        81 -45 callgsubr
        return
      </CharString>
      <CharString index="111">
        70 182 hvcurveto
        -121 hmoveto
        -82 return
      </CharString>
      <CharString index="112">
        94 hstem
        239 90 vstem
        239 return
      </CharString>
      <CharString index="113">
        rmoveto
        -94 472 94 vlineto
        endchar
      </CharString>
      <CharString index="114">
        20 -9 19 -19 12 return
      </CharString>
      <CharString index="115">
        757 -20 hstem
        return
      </CharString>
      <CharString index="116">
        -112 vlineto
        return
      </CharString>
      <CharString index="117">
        rlineto
        -97 hlineto
        return
      </CharString>
</ttFont>
